<mxfile host="Electron" modified="2025-04-06T07:17:08.789Z" agent="Mozilla/5.0 (Windows NT 10.0; Win64; x64) AppleWebKit/537.36 (KHTML, like Gecko) draw.io/24.6.4 Chrome/124.0.6367.207 Electron/30.0.6 Safari/537.36" etag="V-xtpdumZw6IFmYWVMu9" version="24.6.4" type="device" pages="3">
  <diagram id="BGqMhImYcc_NCHqzJcW1" name="uint8">
    <mxGraphModel dx="1366" dy="804" grid="1" gridSize="10" guides="1" tooltips="1" connect="1" arrows="1" fold="1" page="1" pageScale="1" pageWidth="827" pageHeight="1169" math="1" shadow="0">
      <root>
        <mxCell id="0" />
        <mxCell id="1" parent="0" />
        <mxCell id="eeGHceBMtX4j1JV9efV8-1" value="" style="endArrow=none;html=1;rounded=0;" edge="1" parent="1">
          <mxGeometry width="50" height="50" relative="1" as="geometry">
            <mxPoint x="40" y="280" as="sourcePoint" />
            <mxPoint x="80" y="280" as="targetPoint" />
          </mxGeometry>
        </mxCell>
        <mxCell id="eeGHceBMtX4j1JV9efV8-2" value="" style="endArrow=none;html=1;rounded=0;" edge="1" parent="1">
          <mxGeometry width="50" height="50" relative="1" as="geometry">
            <mxPoint x="40" y="280" as="sourcePoint" />
            <mxPoint x="40" y="270" as="targetPoint" />
          </mxGeometry>
        </mxCell>
        <mxCell id="eeGHceBMtX4j1JV9efV8-3" value="" style="endArrow=none;html=1;rounded=0;" edge="1" parent="1">
          <mxGeometry width="50" height="50" relative="1" as="geometry">
            <mxPoint x="80" y="280" as="sourcePoint" />
            <mxPoint x="80" y="270" as="targetPoint" />
          </mxGeometry>
        </mxCell>
        <mxCell id="eeGHceBMtX4j1JV9efV8-4" value="" style="endArrow=none;html=1;rounded=0;" edge="1" parent="1">
          <mxGeometry width="50" height="50" relative="1" as="geometry">
            <mxPoint x="80" y="280" as="sourcePoint" />
            <mxPoint x="120" y="280" as="targetPoint" />
          </mxGeometry>
        </mxCell>
        <mxCell id="eeGHceBMtX4j1JV9efV8-5" value="" style="endArrow=none;html=1;rounded=0;" edge="1" parent="1">
          <mxGeometry width="50" height="50" relative="1" as="geometry">
            <mxPoint x="80" y="280" as="sourcePoint" />
            <mxPoint x="80" y="270" as="targetPoint" />
          </mxGeometry>
        </mxCell>
        <mxCell id="eeGHceBMtX4j1JV9efV8-6" value="" style="endArrow=none;html=1;rounded=0;" edge="1" parent="1">
          <mxGeometry width="50" height="50" relative="1" as="geometry">
            <mxPoint x="120" y="280" as="sourcePoint" />
            <mxPoint x="120" y="270" as="targetPoint" />
          </mxGeometry>
        </mxCell>
        <mxCell id="eeGHceBMtX4j1JV9efV8-7" value="" style="endArrow=none;html=1;rounded=0;" edge="1" parent="1">
          <mxGeometry width="50" height="50" relative="1" as="geometry">
            <mxPoint x="120" y="280" as="sourcePoint" />
            <mxPoint x="160" y="280" as="targetPoint" />
          </mxGeometry>
        </mxCell>
        <mxCell id="eeGHceBMtX4j1JV9efV8-8" value="" style="endArrow=none;html=1;rounded=0;" edge="1" parent="1">
          <mxGeometry width="50" height="50" relative="1" as="geometry">
            <mxPoint x="120" y="280" as="sourcePoint" />
            <mxPoint x="120" y="270" as="targetPoint" />
          </mxGeometry>
        </mxCell>
        <mxCell id="eeGHceBMtX4j1JV9efV8-9" value="" style="endArrow=none;html=1;rounded=0;" edge="1" parent="1">
          <mxGeometry width="50" height="50" relative="1" as="geometry">
            <mxPoint x="160" y="280" as="sourcePoint" />
            <mxPoint x="160" y="270" as="targetPoint" />
          </mxGeometry>
        </mxCell>
        <mxCell id="eeGHceBMtX4j1JV9efV8-10" value="$$0$$" style="text;html=1;align=center;verticalAlign=middle;whiteSpace=wrap;rounded=0;" vertex="1" parent="1">
          <mxGeometry x="30" y="280" width="20" height="20" as="geometry" />
        </mxCell>
        <mxCell id="eeGHceBMtX4j1JV9efV8-11" value="$$1$$" style="text;html=1;align=center;verticalAlign=middle;whiteSpace=wrap;rounded=0;" vertex="1" parent="1">
          <mxGeometry x="70" y="280" width="20" height="20" as="geometry" />
        </mxCell>
        <mxCell id="eeGHceBMtX4j1JV9efV8-12" value="$$2$$" style="text;html=1;align=center;verticalAlign=middle;whiteSpace=wrap;rounded=0;" vertex="1" parent="1">
          <mxGeometry x="110" y="280" width="20" height="20" as="geometry" />
        </mxCell>
        <mxCell id="eeGHceBMtX4j1JV9efV8-13" value="$$3$$" style="text;html=1;align=center;verticalAlign=middle;whiteSpace=wrap;rounded=0;" vertex="1" parent="1">
          <mxGeometry x="150" y="280" width="20" height="20" as="geometry" />
        </mxCell>
        <mxCell id="eeGHceBMtX4j1JV9efV8-14" value="" style="endArrow=none;html=1;rounded=0;exitX=0.5;exitY=0;exitDx=0;exitDy=0;dashed=1;" edge="1" parent="1" source="eeGHceBMtX4j1JV9efV8-13">
          <mxGeometry width="50" height="50" relative="1" as="geometry">
            <mxPoint x="170" y="280" as="sourcePoint" />
            <mxPoint x="240" y="280" as="targetPoint" />
          </mxGeometry>
        </mxCell>
        <mxCell id="eeGHceBMtX4j1JV9efV8-15" value="" style="endArrow=none;html=1;rounded=0;" edge="1" parent="1">
          <mxGeometry width="50" height="50" relative="1" as="geometry">
            <mxPoint x="240" y="280" as="sourcePoint" />
            <mxPoint x="280" y="280" as="targetPoint" />
          </mxGeometry>
        </mxCell>
        <mxCell id="eeGHceBMtX4j1JV9efV8-16" value="" style="endArrow=none;html=1;rounded=0;" edge="1" parent="1">
          <mxGeometry width="50" height="50" relative="1" as="geometry">
            <mxPoint x="240" y="280" as="sourcePoint" />
            <mxPoint x="240" y="270" as="targetPoint" />
          </mxGeometry>
        </mxCell>
        <mxCell id="eeGHceBMtX4j1JV9efV8-17" value="" style="endArrow=none;html=1;rounded=0;" edge="1" parent="1">
          <mxGeometry width="50" height="50" relative="1" as="geometry">
            <mxPoint x="280" y="280" as="sourcePoint" />
            <mxPoint x="280" y="270" as="targetPoint" />
          </mxGeometry>
        </mxCell>
        <mxCell id="eeGHceBMtX4j1JV9efV8-18" value="" style="endArrow=none;html=1;rounded=0;" edge="1" parent="1">
          <mxGeometry width="50" height="50" relative="1" as="geometry">
            <mxPoint x="280" y="280" as="sourcePoint" />
            <mxPoint x="320" y="280" as="targetPoint" />
          </mxGeometry>
        </mxCell>
        <mxCell id="eeGHceBMtX4j1JV9efV8-19" value="" style="endArrow=none;html=1;rounded=0;" edge="1" parent="1">
          <mxGeometry width="50" height="50" relative="1" as="geometry">
            <mxPoint x="280" y="280" as="sourcePoint" />
            <mxPoint x="280" y="270" as="targetPoint" />
          </mxGeometry>
        </mxCell>
        <mxCell id="eeGHceBMtX4j1JV9efV8-20" value="" style="endArrow=none;html=1;rounded=0;" edge="1" parent="1">
          <mxGeometry width="50" height="50" relative="1" as="geometry">
            <mxPoint x="320" y="280" as="sourcePoint" />
            <mxPoint x="320" y="270" as="targetPoint" />
          </mxGeometry>
        </mxCell>
        <mxCell id="eeGHceBMtX4j1JV9efV8-21" value="" style="endArrow=none;html=1;rounded=0;" edge="1" parent="1">
          <mxGeometry width="50" height="50" relative="1" as="geometry">
            <mxPoint x="320" y="280" as="sourcePoint" />
            <mxPoint x="360" y="280" as="targetPoint" />
          </mxGeometry>
        </mxCell>
        <mxCell id="eeGHceBMtX4j1JV9efV8-22" value="" style="endArrow=none;html=1;rounded=0;" edge="1" parent="1">
          <mxGeometry width="50" height="50" relative="1" as="geometry">
            <mxPoint x="320" y="280" as="sourcePoint" />
            <mxPoint x="320" y="270" as="targetPoint" />
          </mxGeometry>
        </mxCell>
        <mxCell id="eeGHceBMtX4j1JV9efV8-23" value="" style="endArrow=none;html=1;rounded=0;" edge="1" parent="1">
          <mxGeometry width="50" height="50" relative="1" as="geometry">
            <mxPoint x="400" y="280" as="sourcePoint" />
            <mxPoint x="400" y="270" as="targetPoint" />
          </mxGeometry>
        </mxCell>
        <mxCell id="eeGHceBMtX4j1JV9efV8-24" value="$$126$$" style="text;html=1;align=center;verticalAlign=middle;whiteSpace=wrap;rounded=0;" vertex="1" parent="1">
          <mxGeometry x="230" y="280" width="20" height="20" as="geometry" />
        </mxCell>
        <mxCell id="eeGHceBMtX4j1JV9efV8-25" value="$$127$$" style="text;html=1;align=center;verticalAlign=middle;whiteSpace=wrap;rounded=0;" vertex="1" parent="1">
          <mxGeometry x="270" y="280" width="20" height="20" as="geometry" />
        </mxCell>
        <mxCell id="eeGHceBMtX4j1JV9efV8-26" value="$$128$$" style="text;html=1;align=center;verticalAlign=middle;whiteSpace=wrap;rounded=0;" vertex="1" parent="1">
          <mxGeometry x="310" y="280" width="20" height="20" as="geometry" />
        </mxCell>
        <mxCell id="eeGHceBMtX4j1JV9efV8-27" value="$$129$$" style="text;html=1;align=center;verticalAlign=middle;whiteSpace=wrap;rounded=0;" vertex="1" parent="1">
          <mxGeometry x="350" y="280" width="20" height="20" as="geometry" />
        </mxCell>
        <mxCell id="eeGHceBMtX4j1JV9efV8-28" value="" style="endArrow=none;html=1;rounded=0;exitX=0.5;exitY=0;exitDx=0;exitDy=0;dashed=1;" edge="1" parent="1">
          <mxGeometry width="50" height="50" relative="1" as="geometry">
            <mxPoint x="400" y="280" as="sourcePoint" />
            <mxPoint x="480" y="280" as="targetPoint" />
          </mxGeometry>
        </mxCell>
        <mxCell id="eeGHceBMtX4j1JV9efV8-29" value="" style="endArrow=none;html=1;rounded=0;" edge="1" parent="1">
          <mxGeometry width="50" height="50" relative="1" as="geometry">
            <mxPoint x="480" y="280" as="sourcePoint" />
            <mxPoint x="520" y="280" as="targetPoint" />
          </mxGeometry>
        </mxCell>
        <mxCell id="eeGHceBMtX4j1JV9efV8-30" value="" style="endArrow=none;html=1;rounded=0;" edge="1" parent="1">
          <mxGeometry width="50" height="50" relative="1" as="geometry">
            <mxPoint x="480" y="280" as="sourcePoint" />
            <mxPoint x="480" y="270" as="targetPoint" />
          </mxGeometry>
        </mxCell>
        <mxCell id="eeGHceBMtX4j1JV9efV8-31" value="" style="endArrow=none;html=1;rounded=0;" edge="1" parent="1">
          <mxGeometry width="50" height="50" relative="1" as="geometry">
            <mxPoint x="520" y="280" as="sourcePoint" />
            <mxPoint x="520" y="270" as="targetPoint" />
          </mxGeometry>
        </mxCell>
        <mxCell id="eeGHceBMtX4j1JV9efV8-32" value="" style="endArrow=none;html=1;rounded=0;" edge="1" parent="1">
          <mxGeometry width="50" height="50" relative="1" as="geometry">
            <mxPoint x="520" y="280" as="sourcePoint" />
            <mxPoint x="560" y="280" as="targetPoint" />
          </mxGeometry>
        </mxCell>
        <mxCell id="eeGHceBMtX4j1JV9efV8-33" value="" style="endArrow=none;html=1;rounded=0;" edge="1" parent="1">
          <mxGeometry width="50" height="50" relative="1" as="geometry">
            <mxPoint x="520" y="280" as="sourcePoint" />
            <mxPoint x="520" y="270" as="targetPoint" />
          </mxGeometry>
        </mxCell>
        <mxCell id="eeGHceBMtX4j1JV9efV8-34" value="" style="endArrow=none;html=1;rounded=0;" edge="1" parent="1">
          <mxGeometry width="50" height="50" relative="1" as="geometry">
            <mxPoint x="560" y="280" as="sourcePoint" />
            <mxPoint x="560" y="270" as="targetPoint" />
          </mxGeometry>
        </mxCell>
        <mxCell id="eeGHceBMtX4j1JV9efV8-35" value="" style="endArrow=none;html=1;rounded=0;" edge="1" parent="1">
          <mxGeometry width="50" height="50" relative="1" as="geometry">
            <mxPoint x="560" y="280" as="sourcePoint" />
            <mxPoint x="600" y="280" as="targetPoint" />
          </mxGeometry>
        </mxCell>
        <mxCell id="eeGHceBMtX4j1JV9efV8-36" value="" style="endArrow=none;html=1;rounded=0;" edge="1" parent="1">
          <mxGeometry width="50" height="50" relative="1" as="geometry">
            <mxPoint x="560" y="280" as="sourcePoint" />
            <mxPoint x="560" y="270" as="targetPoint" />
          </mxGeometry>
        </mxCell>
        <mxCell id="eeGHceBMtX4j1JV9efV8-37" value="" style="endArrow=none;html=1;rounded=0;" edge="1" parent="1">
          <mxGeometry width="50" height="50" relative="1" as="geometry">
            <mxPoint x="600" y="280" as="sourcePoint" />
            <mxPoint x="600" y="270" as="targetPoint" />
          </mxGeometry>
        </mxCell>
        <mxCell id="eeGHceBMtX4j1JV9efV8-38" value="$$252$$" style="text;html=1;align=center;verticalAlign=middle;whiteSpace=wrap;rounded=0;" vertex="1" parent="1">
          <mxGeometry x="470" y="280" width="20" height="20" as="geometry" />
        </mxCell>
        <mxCell id="eeGHceBMtX4j1JV9efV8-39" value="$$253$$" style="text;html=1;align=center;verticalAlign=middle;whiteSpace=wrap;rounded=0;" vertex="1" parent="1">
          <mxGeometry x="510" y="280" width="20" height="20" as="geometry" />
        </mxCell>
        <mxCell id="eeGHceBMtX4j1JV9efV8-40" value="$$254$$" style="text;html=1;align=center;verticalAlign=middle;whiteSpace=wrap;rounded=0;" vertex="1" parent="1">
          <mxGeometry x="550" y="280" width="20" height="20" as="geometry" />
        </mxCell>
        <mxCell id="eeGHceBMtX4j1JV9efV8-41" value="$$255$$" style="text;html=1;align=center;verticalAlign=middle;whiteSpace=wrap;rounded=0;" vertex="1" parent="1">
          <mxGeometry x="590" y="280" width="20" height="20" as="geometry" />
        </mxCell>
        <mxCell id="eeGHceBMtX4j1JV9efV8-56" value="Unsigned Int8" style="ellipse;whiteSpace=wrap;html=1;aspect=fixed;" vertex="1" parent="1">
          <mxGeometry x="200" y="360" width="240" height="240" as="geometry" />
        </mxCell>
        <mxCell id="eeGHceBMtX4j1JV9efV8-57" value="" style="endArrow=none;html=1;rounded=0;" edge="1" parent="1">
          <mxGeometry width="50" height="50" relative="1" as="geometry">
            <mxPoint x="319.5" y="370" as="sourcePoint" />
            <mxPoint x="319.5" y="350" as="targetPoint" />
          </mxGeometry>
        </mxCell>
        <mxCell id="eeGHceBMtX4j1JV9efV8-59" value="$$0$$" style="text;html=1;align=center;verticalAlign=middle;whiteSpace=wrap;rounded=0;" vertex="1" parent="1">
          <mxGeometry x="310" y="370" width="20" height="20" as="geometry" />
        </mxCell>
        <mxCell id="eeGHceBMtX4j1JV9efV8-64" value="" style="endArrow=none;html=1;rounded=0;" edge="1" parent="1">
          <mxGeometry width="50" height="50" relative="1" as="geometry">
            <mxPoint x="348.5" y="370" as="sourcePoint" />
            <mxPoint x="348.5" y="350" as="targetPoint" />
          </mxGeometry>
        </mxCell>
        <mxCell id="eeGHceBMtX4j1JV9efV8-65" value="$$1$$" style="text;html=1;align=center;verticalAlign=middle;whiteSpace=wrap;rounded=0;" vertex="1" parent="1">
          <mxGeometry x="339" y="370" width="20" height="20" as="geometry" />
        </mxCell>
        <mxCell id="eeGHceBMtX4j1JV9efV8-66" value="" style="endArrow=none;html=1;rounded=0;" edge="1" parent="1">
          <mxGeometry width="50" height="50" relative="1" as="geometry">
            <mxPoint x="379.5" y="380" as="sourcePoint" />
            <mxPoint x="379.5" y="360" as="targetPoint" />
          </mxGeometry>
        </mxCell>
        <mxCell id="eeGHceBMtX4j1JV9efV8-67" value="$$2$$" style="text;html=1;align=center;verticalAlign=middle;whiteSpace=wrap;rounded=0;" vertex="1" parent="1">
          <mxGeometry x="369" y="380" width="20" height="20" as="geometry" />
        </mxCell>
        <mxCell id="eeGHceBMtX4j1JV9efV8-68" value="" style="endArrow=none;html=1;rounded=0;" edge="1" parent="1">
          <mxGeometry width="50" height="50" relative="1" as="geometry">
            <mxPoint x="259.5" y="380" as="sourcePoint" />
            <mxPoint x="259.5" y="360" as="targetPoint" />
          </mxGeometry>
        </mxCell>
        <mxCell id="eeGHceBMtX4j1JV9efV8-69" value="$$254$$" style="text;html=1;align=center;verticalAlign=middle;whiteSpace=wrap;rounded=0;" vertex="1" parent="1">
          <mxGeometry x="250" y="380" width="20" height="20" as="geometry" />
        </mxCell>
        <mxCell id="eeGHceBMtX4j1JV9efV8-70" value="" style="endArrow=none;html=1;rounded=0;" edge="1" parent="1">
          <mxGeometry width="50" height="50" relative="1" as="geometry">
            <mxPoint x="289.5" y="370" as="sourcePoint" />
            <mxPoint x="289.5" y="350" as="targetPoint" />
          </mxGeometry>
        </mxCell>
        <mxCell id="eeGHceBMtX4j1JV9efV8-71" value="$$255$$" style="text;html=1;align=center;verticalAlign=middle;whiteSpace=wrap;rounded=0;" vertex="1" parent="1">
          <mxGeometry x="280" y="370" width="20" height="20" as="geometry" />
        </mxCell>
        <mxCell id="eeGHceBMtX4j1JV9efV8-76" value="" style="endArrow=none;html=1;rounded=0;" edge="1" parent="1">
          <mxGeometry width="50" height="50" relative="1" as="geometry">
            <mxPoint x="319.5" y="610" as="sourcePoint" />
            <mxPoint x="319.5" y="590" as="targetPoint" />
          </mxGeometry>
        </mxCell>
        <mxCell id="eeGHceBMtX4j1JV9efV8-77" value="$$128$$" style="text;html=1;align=center;verticalAlign=middle;whiteSpace=wrap;rounded=0;" vertex="1" parent="1">
          <mxGeometry x="310" y="573" width="20" height="20" as="geometry" />
        </mxCell>
        <mxCell id="eeGHceBMtX4j1JV9efV8-78" value="" style="endArrow=none;html=1;rounded=0;" edge="1" parent="1">
          <mxGeometry width="50" height="50" relative="1" as="geometry">
            <mxPoint x="378.5" y="600" as="sourcePoint" />
            <mxPoint x="378.5" y="580" as="targetPoint" />
          </mxGeometry>
        </mxCell>
        <mxCell id="eeGHceBMtX4j1JV9efV8-79" value="$$126$$" style="text;html=1;align=center;verticalAlign=middle;whiteSpace=wrap;rounded=0;" vertex="1" parent="1">
          <mxGeometry x="369" y="560" width="20" height="20" as="geometry" />
        </mxCell>
        <mxCell id="eeGHceBMtX4j1JV9efV8-80" value="" style="endArrow=none;html=1;rounded=0;" edge="1" parent="1">
          <mxGeometry width="50" height="50" relative="1" as="geometry">
            <mxPoint x="348.5" y="607" as="sourcePoint" />
            <mxPoint x="348.5" y="587" as="targetPoint" />
          </mxGeometry>
        </mxCell>
        <mxCell id="eeGHceBMtX4j1JV9efV8-81" value="$$127$$" style="text;html=1;align=center;verticalAlign=middle;whiteSpace=wrap;rounded=0;" vertex="1" parent="1">
          <mxGeometry x="339" y="567" width="20" height="20" as="geometry" />
        </mxCell>
        <mxCell id="eeGHceBMtX4j1JV9efV8-86" value="" style="endArrow=none;html=1;rounded=0;" edge="1" parent="1">
          <mxGeometry width="50" height="50" relative="1" as="geometry">
            <mxPoint x="289.5" y="607" as="sourcePoint" />
            <mxPoint x="289.5" y="587" as="targetPoint" />
          </mxGeometry>
        </mxCell>
        <mxCell id="eeGHceBMtX4j1JV9efV8-87" value="$$129$$" style="text;html=1;align=center;verticalAlign=middle;whiteSpace=wrap;rounded=0;" vertex="1" parent="1">
          <mxGeometry x="280" y="567" width="20" height="20" as="geometry" />
        </mxCell>
        <mxCell id="eeGHceBMtX4j1JV9efV8-88" value="" style="endArrow=none;html=1;rounded=0;" edge="1" parent="1">
          <mxGeometry width="50" height="50" relative="1" as="geometry">
            <mxPoint x="260.5" y="600" as="sourcePoint" />
            <mxPoint x="260.5" y="580" as="targetPoint" />
          </mxGeometry>
        </mxCell>
        <mxCell id="eeGHceBMtX4j1JV9efV8-89" value="$$130$$" style="text;html=1;align=center;verticalAlign=middle;whiteSpace=wrap;rounded=0;" vertex="1" parent="1">
          <mxGeometry x="251" y="560" width="20" height="20" as="geometry" />
        </mxCell>
        <mxCell id="cmZAWGSySOruUo3nBarE-39" value="" style="endArrow=none;html=1;rounded=0;" edge="1" parent="1">
          <mxGeometry width="50" height="50" relative="1" as="geometry">
            <mxPoint x="360" y="280" as="sourcePoint" />
            <mxPoint x="360" y="270" as="targetPoint" />
          </mxGeometry>
        </mxCell>
        <mxCell id="cmZAWGSySOruUo3nBarE-40" value="" style="endArrow=none;html=1;rounded=0;" edge="1" parent="1">
          <mxGeometry width="50" height="50" relative="1" as="geometry">
            <mxPoint x="360" y="280" as="sourcePoint" />
            <mxPoint x="400" y="280" as="targetPoint" />
          </mxGeometry>
        </mxCell>
        <mxCell id="cmZAWGSySOruUo3nBarE-41" value="" style="endArrow=none;html=1;rounded=0;" edge="1" parent="1">
          <mxGeometry width="50" height="50" relative="1" as="geometry">
            <mxPoint x="360" y="280" as="sourcePoint" />
            <mxPoint x="360" y="270" as="targetPoint" />
          </mxGeometry>
        </mxCell>
        <mxCell id="cmZAWGSySOruUo3nBarE-42" value="$$130$$" style="text;html=1;align=center;verticalAlign=middle;whiteSpace=wrap;rounded=0;" vertex="1" parent="1">
          <mxGeometry x="389" y="280" width="20" height="20" as="geometry" />
        </mxCell>
      </root>
    </mxGraphModel>
  </diagram>
  <diagram name="int8" id="xDKAof-5aIndT_xmUvFZ">
    <mxGraphModel dx="1304" dy="767" grid="1" gridSize="10" guides="1" tooltips="1" connect="1" arrows="1" fold="1" page="1" pageScale="1" pageWidth="827" pageHeight="1169" math="1" shadow="0">
      <root>
        <mxCell id="0" />
        <mxCell id="1" parent="0" />
        <mxCell id="TXTsW2DrltgbNl0NS9Zt-1" value="" style="endArrow=none;html=1;rounded=0;" parent="1" edge="1">
          <mxGeometry width="50" height="50" relative="1" as="geometry">
            <mxPoint x="40" y="418" as="sourcePoint" />
            <mxPoint x="80" y="418" as="targetPoint" />
          </mxGeometry>
        </mxCell>
        <mxCell id="TXTsW2DrltgbNl0NS9Zt-3" value="" style="endArrow=none;html=1;rounded=0;" parent="1" edge="1">
          <mxGeometry width="50" height="50" relative="1" as="geometry">
            <mxPoint x="40" y="418" as="sourcePoint" />
            <mxPoint x="40" y="408" as="targetPoint" />
          </mxGeometry>
        </mxCell>
        <mxCell id="TXTsW2DrltgbNl0NS9Zt-6" value="" style="endArrow=none;html=1;rounded=0;" parent="1" edge="1">
          <mxGeometry width="50" height="50" relative="1" as="geometry">
            <mxPoint x="80" y="418" as="sourcePoint" />
            <mxPoint x="80" y="408" as="targetPoint" />
          </mxGeometry>
        </mxCell>
        <mxCell id="TXTsW2DrltgbNl0NS9Zt-7" value="" style="endArrow=none;html=1;rounded=0;" parent="1" edge="1">
          <mxGeometry width="50" height="50" relative="1" as="geometry">
            <mxPoint x="80" y="418" as="sourcePoint" />
            <mxPoint x="120" y="418" as="targetPoint" />
          </mxGeometry>
        </mxCell>
        <mxCell id="TXTsW2DrltgbNl0NS9Zt-8" value="" style="endArrow=none;html=1;rounded=0;" parent="1" edge="1">
          <mxGeometry width="50" height="50" relative="1" as="geometry">
            <mxPoint x="80" y="418" as="sourcePoint" />
            <mxPoint x="80" y="408" as="targetPoint" />
          </mxGeometry>
        </mxCell>
        <mxCell id="TXTsW2DrltgbNl0NS9Zt-10" value="" style="endArrow=none;html=1;rounded=0;" parent="1" edge="1">
          <mxGeometry width="50" height="50" relative="1" as="geometry">
            <mxPoint x="160" y="418" as="sourcePoint" />
            <mxPoint x="160" y="408" as="targetPoint" />
          </mxGeometry>
        </mxCell>
        <mxCell id="TXTsW2DrltgbNl0NS9Zt-12" value="" style="endArrow=none;html=1;rounded=0;" parent="1" edge="1">
          <mxGeometry width="50" height="50" relative="1" as="geometry">
            <mxPoint x="160" y="418" as="sourcePoint" />
            <mxPoint x="160" y="408" as="targetPoint" />
          </mxGeometry>
        </mxCell>
        <mxCell id="TXTsW2DrltgbNl0NS9Zt-15" value="$$0$$" style="text;html=1;align=center;verticalAlign=middle;whiteSpace=wrap;rounded=0;" parent="1" vertex="1">
          <mxGeometry x="30" y="418" width="20" height="20" as="geometry" />
        </mxCell>
        <mxCell id="TXTsW2DrltgbNl0NS9Zt-21" value="$$1$$" style="text;html=1;align=center;verticalAlign=middle;whiteSpace=wrap;rounded=0;" parent="1" vertex="1">
          <mxGeometry x="70" y="418" width="20" height="20" as="geometry" />
        </mxCell>
        <mxCell id="TXTsW2DrltgbNl0NS9Zt-22" value="$$2$$" style="text;html=1;align=center;verticalAlign=middle;whiteSpace=wrap;rounded=0;" parent="1" vertex="1">
          <mxGeometry x="110" y="418" width="20" height="20" as="geometry" />
        </mxCell>
        <mxCell id="TXTsW2DrltgbNl0NS9Zt-24" value="" style="endArrow=none;html=1;rounded=0;exitX=0.5;exitY=0;exitDx=0;exitDy=0;dashed=1;" parent="1" edge="1">
          <mxGeometry width="50" height="50" relative="1" as="geometry">
            <mxPoint x="160" y="417.9999999999999" as="sourcePoint" />
            <mxPoint x="240" y="418" as="targetPoint" />
          </mxGeometry>
        </mxCell>
        <mxCell id="TXTsW2DrltgbNl0NS9Zt-25" value="" style="endArrow=none;html=1;rounded=0;" parent="1" edge="1">
          <mxGeometry width="50" height="50" relative="1" as="geometry">
            <mxPoint x="240" y="418" as="sourcePoint" />
            <mxPoint x="280" y="418" as="targetPoint" />
          </mxGeometry>
        </mxCell>
        <mxCell id="TXTsW2DrltgbNl0NS9Zt-26" value="" style="endArrow=none;html=1;rounded=0;" parent="1" edge="1">
          <mxGeometry width="50" height="50" relative="1" as="geometry">
            <mxPoint x="240" y="418" as="sourcePoint" />
            <mxPoint x="240" y="408" as="targetPoint" />
          </mxGeometry>
        </mxCell>
        <mxCell id="TXTsW2DrltgbNl0NS9Zt-27" value="" style="endArrow=none;html=1;rounded=0;" parent="1" edge="1">
          <mxGeometry width="50" height="50" relative="1" as="geometry">
            <mxPoint x="280" y="418" as="sourcePoint" />
            <mxPoint x="280" y="408" as="targetPoint" />
          </mxGeometry>
        </mxCell>
        <mxCell id="TXTsW2DrltgbNl0NS9Zt-28" value="" style="endArrow=none;html=1;rounded=0;" parent="1" edge="1">
          <mxGeometry width="50" height="50" relative="1" as="geometry">
            <mxPoint x="280" y="418" as="sourcePoint" />
            <mxPoint x="320" y="418" as="targetPoint" />
          </mxGeometry>
        </mxCell>
        <mxCell id="TXTsW2DrltgbNl0NS9Zt-29" value="" style="endArrow=none;html=1;rounded=0;" parent="1" edge="1">
          <mxGeometry width="50" height="50" relative="1" as="geometry">
            <mxPoint x="280" y="418" as="sourcePoint" />
            <mxPoint x="280" y="408" as="targetPoint" />
          </mxGeometry>
        </mxCell>
        <mxCell id="TXTsW2DrltgbNl0NS9Zt-30" value="" style="endArrow=none;html=1;rounded=0;" parent="1" edge="1">
          <mxGeometry width="50" height="50" relative="1" as="geometry">
            <mxPoint x="320" y="418" as="sourcePoint" />
            <mxPoint x="320" y="408" as="targetPoint" />
          </mxGeometry>
        </mxCell>
        <mxCell id="TXTsW2DrltgbNl0NS9Zt-31" value="" style="endArrow=none;html=1;rounded=0;" parent="1" edge="1">
          <mxGeometry width="50" height="50" relative="1" as="geometry">
            <mxPoint x="320" y="418" as="sourcePoint" />
            <mxPoint x="360" y="418" as="targetPoint" />
          </mxGeometry>
        </mxCell>
        <mxCell id="TXTsW2DrltgbNl0NS9Zt-32" value="" style="endArrow=none;html=1;rounded=0;" parent="1" edge="1">
          <mxGeometry width="50" height="50" relative="1" as="geometry">
            <mxPoint x="320" y="418" as="sourcePoint" />
            <mxPoint x="320" y="408" as="targetPoint" />
          </mxGeometry>
        </mxCell>
        <mxCell id="TXTsW2DrltgbNl0NS9Zt-34" value="$$126$$" style="text;html=1;align=center;verticalAlign=middle;whiteSpace=wrap;rounded=0;" parent="1" vertex="1">
          <mxGeometry x="230" y="418" width="20" height="20" as="geometry" />
        </mxCell>
        <mxCell id="TXTsW2DrltgbNl0NS9Zt-35" value="$$127$$" style="text;html=1;align=center;verticalAlign=middle;whiteSpace=wrap;rounded=0;" parent="1" vertex="1">
          <mxGeometry x="270" y="418" width="20" height="20" as="geometry" />
        </mxCell>
        <mxCell id="TXTsW2DrltgbNl0NS9Zt-36" value="$$128$$" style="text;html=1;align=center;verticalAlign=middle;whiteSpace=wrap;rounded=0;" parent="1" vertex="1">
          <mxGeometry x="310" y="418" width="20" height="20" as="geometry" />
        </mxCell>
        <mxCell id="TXTsW2DrltgbNl0NS9Zt-51" value="$$129$$" style="text;html=1;align=center;verticalAlign=middle;whiteSpace=wrap;rounded=0;" parent="1" vertex="1">
          <mxGeometry x="350" y="418" width="20" height="20" as="geometry" />
        </mxCell>
        <mxCell id="TXTsW2DrltgbNl0NS9Zt-52" value="" style="endArrow=none;html=1;rounded=0;exitX=0.5;exitY=0;exitDx=0;exitDy=0;dashed=1;" parent="1" edge="1">
          <mxGeometry width="50" height="50" relative="1" as="geometry">
            <mxPoint x="399" y="418" as="sourcePoint" />
            <mxPoint x="479" y="418" as="targetPoint" />
          </mxGeometry>
        </mxCell>
        <mxCell id="TXTsW2DrltgbNl0NS9Zt-53" value="" style="endArrow=none;html=1;rounded=0;" parent="1" edge="1">
          <mxGeometry width="50" height="50" relative="1" as="geometry">
            <mxPoint x="479" y="418" as="sourcePoint" />
            <mxPoint x="519" y="418" as="targetPoint" />
          </mxGeometry>
        </mxCell>
        <mxCell id="TXTsW2DrltgbNl0NS9Zt-54" value="" style="endArrow=none;html=1;rounded=0;" parent="1" edge="1">
          <mxGeometry width="50" height="50" relative="1" as="geometry">
            <mxPoint x="479" y="418" as="sourcePoint" />
            <mxPoint x="479" y="408" as="targetPoint" />
          </mxGeometry>
        </mxCell>
        <mxCell id="TXTsW2DrltgbNl0NS9Zt-55" value="" style="endArrow=none;html=1;rounded=0;" parent="1" edge="1">
          <mxGeometry width="50" height="50" relative="1" as="geometry">
            <mxPoint x="519" y="418" as="sourcePoint" />
            <mxPoint x="519" y="408" as="targetPoint" />
          </mxGeometry>
        </mxCell>
        <mxCell id="TXTsW2DrltgbNl0NS9Zt-56" value="" style="endArrow=none;html=1;rounded=0;" parent="1" edge="1">
          <mxGeometry width="50" height="50" relative="1" as="geometry">
            <mxPoint x="519" y="418" as="sourcePoint" />
            <mxPoint x="559" y="418" as="targetPoint" />
          </mxGeometry>
        </mxCell>
        <mxCell id="TXTsW2DrltgbNl0NS9Zt-57" value="" style="endArrow=none;html=1;rounded=0;" parent="1" edge="1">
          <mxGeometry width="50" height="50" relative="1" as="geometry">
            <mxPoint x="519" y="418" as="sourcePoint" />
            <mxPoint x="519" y="408" as="targetPoint" />
          </mxGeometry>
        </mxCell>
        <mxCell id="TXTsW2DrltgbNl0NS9Zt-58" value="" style="endArrow=none;html=1;rounded=0;" parent="1" edge="1">
          <mxGeometry width="50" height="50" relative="1" as="geometry">
            <mxPoint x="559" y="418" as="sourcePoint" />
            <mxPoint x="559" y="408" as="targetPoint" />
          </mxGeometry>
        </mxCell>
        <mxCell id="TXTsW2DrltgbNl0NS9Zt-59" value="" style="endArrow=none;html=1;rounded=0;" parent="1" edge="1">
          <mxGeometry width="50" height="50" relative="1" as="geometry">
            <mxPoint x="559" y="418" as="sourcePoint" />
            <mxPoint x="599" y="418" as="targetPoint" />
          </mxGeometry>
        </mxCell>
        <mxCell id="TXTsW2DrltgbNl0NS9Zt-60" value="" style="endArrow=none;html=1;rounded=0;" parent="1" edge="1">
          <mxGeometry width="50" height="50" relative="1" as="geometry">
            <mxPoint x="559" y="418" as="sourcePoint" />
            <mxPoint x="559" y="408" as="targetPoint" />
          </mxGeometry>
        </mxCell>
        <mxCell id="TXTsW2DrltgbNl0NS9Zt-61" value="" style="endArrow=none;html=1;rounded=0;" parent="1" edge="1">
          <mxGeometry width="50" height="50" relative="1" as="geometry">
            <mxPoint x="599" y="418" as="sourcePoint" />
            <mxPoint x="599" y="408" as="targetPoint" />
          </mxGeometry>
        </mxCell>
        <mxCell id="TXTsW2DrltgbNl0NS9Zt-62" value="$$252$$" style="text;html=1;align=center;verticalAlign=middle;whiteSpace=wrap;rounded=0;" parent="1" vertex="1">
          <mxGeometry x="469" y="418" width="20" height="20" as="geometry" />
        </mxCell>
        <mxCell id="TXTsW2DrltgbNl0NS9Zt-63" value="$$253$$" style="text;html=1;align=center;verticalAlign=middle;whiteSpace=wrap;rounded=0;" parent="1" vertex="1">
          <mxGeometry x="509" y="418" width="20" height="20" as="geometry" />
        </mxCell>
        <mxCell id="TXTsW2DrltgbNl0NS9Zt-64" value="$$254$$" style="text;html=1;align=center;verticalAlign=middle;whiteSpace=wrap;rounded=0;" parent="1" vertex="1">
          <mxGeometry x="549" y="418" width="20" height="20" as="geometry" />
        </mxCell>
        <mxCell id="TXTsW2DrltgbNl0NS9Zt-65" value="$$255$$" style="text;html=1;align=center;verticalAlign=middle;whiteSpace=wrap;rounded=0;" parent="1" vertex="1">
          <mxGeometry x="589" y="418" width="20" height="20" as="geometry" />
        </mxCell>
        <mxCell id="TXTsW2DrltgbNl0NS9Zt-154" value="$$0$$" style="text;html=1;align=center;verticalAlign=middle;whiteSpace=wrap;rounded=0;fontColor=#FF3333;" parent="1" vertex="1">
          <mxGeometry x="30" y="388.56999999999994" width="20" height="20" as="geometry" />
        </mxCell>
        <mxCell id="TXTsW2DrltgbNl0NS9Zt-155" value="$$1$$" style="text;html=1;align=center;verticalAlign=middle;whiteSpace=wrap;rounded=0;fontColor=#FF3333;" parent="1" vertex="1">
          <mxGeometry x="70" y="388.56999999999994" width="20" height="20" as="geometry" />
        </mxCell>
        <mxCell id="TXTsW2DrltgbNl0NS9Zt-156" value="$$2$$" style="text;html=1;align=center;verticalAlign=middle;whiteSpace=wrap;rounded=0;fontColor=#FF3333;" parent="1" vertex="1">
          <mxGeometry x="110" y="388.56999999999994" width="20" height="20" as="geometry" />
        </mxCell>
        <mxCell id="TXTsW2DrltgbNl0NS9Zt-158" value="$$126$$" style="text;html=1;align=center;verticalAlign=middle;whiteSpace=wrap;rounded=0;fontColor=#FF3333;" parent="1" vertex="1">
          <mxGeometry x="230" y="388.56999999999994" width="20" height="20" as="geometry" />
        </mxCell>
        <mxCell id="TXTsW2DrltgbNl0NS9Zt-159" value="$$127$$" style="text;html=1;align=center;verticalAlign=middle;whiteSpace=wrap;rounded=0;fontColor=#FF3333;" parent="1" vertex="1">
          <mxGeometry x="270" y="388.56999999999994" width="20" height="20" as="geometry" />
        </mxCell>
        <mxCell id="TXTsW2DrltgbNl0NS9Zt-160" value="$$-128$$" style="text;html=1;align=center;verticalAlign=middle;whiteSpace=wrap;rounded=0;fontColor=#FF3333;" parent="1" vertex="1">
          <mxGeometry x="310" y="388.56999999999994" width="20" height="20" as="geometry" />
        </mxCell>
        <mxCell id="TXTsW2DrltgbNl0NS9Zt-161" value="$$-127$$" style="text;html=1;align=center;verticalAlign=middle;whiteSpace=wrap;rounded=0;fontColor=#FF3333;" parent="1" vertex="1">
          <mxGeometry x="350" y="388.56999999999994" width="20" height="20" as="geometry" />
        </mxCell>
        <mxCell id="TXTsW2DrltgbNl0NS9Zt-162" value="$$-4$$" style="text;html=1;align=center;verticalAlign=middle;whiteSpace=wrap;rounded=0;fontColor=#FF3333;" parent="1" vertex="1">
          <mxGeometry x="469" y="388.56999999999994" width="20" height="20" as="geometry" />
        </mxCell>
        <mxCell id="TXTsW2DrltgbNl0NS9Zt-163" value="$$-3$$" style="text;html=1;align=center;verticalAlign=middle;whiteSpace=wrap;rounded=0;fontColor=#FF3333;" parent="1" vertex="1">
          <mxGeometry x="509" y="388.56999999999994" width="20" height="20" as="geometry" />
        </mxCell>
        <mxCell id="TXTsW2DrltgbNl0NS9Zt-164" value="$$-2$$" style="text;html=1;align=center;verticalAlign=middle;whiteSpace=wrap;rounded=0;fontColor=#FF3333;" parent="1" vertex="1">
          <mxGeometry x="549" y="388.56999999999994" width="20" height="20" as="geometry" />
        </mxCell>
        <mxCell id="TXTsW2DrltgbNl0NS9Zt-165" value="$$-1$$" style="text;html=1;align=center;verticalAlign=middle;whiteSpace=wrap;rounded=0;fontColor=#FF3333;" parent="1" vertex="1">
          <mxGeometry x="589" y="388.56999999999994" width="20" height="20" as="geometry" />
        </mxCell>
        <mxCell id="TXTsW2DrltgbNl0NS9Zt-177" value="&lt;font&gt;Unsigned Int8&lt;/font&gt;" style="text;html=1;align=center;verticalAlign=middle;whiteSpace=wrap;rounded=0;fontColor=default;" parent="1" vertex="1">
          <mxGeometry x="40" y="438" width="80" height="30" as="geometry" />
        </mxCell>
        <mxCell id="TXTsW2DrltgbNl0NS9Zt-178" value="&lt;font&gt;Signed Int8 补码&lt;/font&gt;" style="text;html=1;align=center;verticalAlign=middle;whiteSpace=wrap;rounded=0;fontColor=#FF3333;" parent="1" vertex="1">
          <mxGeometry x="40" y="358.57" width="100" height="30" as="geometry" />
        </mxCell>
        <mxCell id="X3P0a1so8L6fuwu_TgeA-1" value="" style="ellipse;whiteSpace=wrap;html=1;aspect=fixed;fillColor=#d5e8d4;strokeColor=#82b366;" vertex="1" parent="1">
          <mxGeometry x="200" y="498" width="240" height="240" as="geometry" />
        </mxCell>
        <mxCell id="X3P0a1so8L6fuwu_TgeA-2" value="" style="endArrow=none;html=1;rounded=0;" edge="1" parent="1">
          <mxGeometry width="50" height="50" relative="1" as="geometry">
            <mxPoint x="319.5" y="508" as="sourcePoint" />
            <mxPoint x="319.5" y="488" as="targetPoint" />
          </mxGeometry>
        </mxCell>
        <mxCell id="X3P0a1so8L6fuwu_TgeA-3" value="$$0$$" style="text;html=1;align=center;verticalAlign=middle;whiteSpace=wrap;rounded=0;" vertex="1" parent="1">
          <mxGeometry x="310" y="508" width="20" height="20" as="geometry" />
        </mxCell>
        <mxCell id="X3P0a1so8L6fuwu_TgeA-4" value="" style="endArrow=none;html=1;rounded=0;" edge="1" parent="1">
          <mxGeometry width="50" height="50" relative="1" as="geometry">
            <mxPoint x="348.5" y="508" as="sourcePoint" />
            <mxPoint x="348.5" y="488" as="targetPoint" />
          </mxGeometry>
        </mxCell>
        <mxCell id="X3P0a1so8L6fuwu_TgeA-5" value="$$1$$" style="text;html=1;align=center;verticalAlign=middle;whiteSpace=wrap;rounded=0;" vertex="1" parent="1">
          <mxGeometry x="339" y="508" width="20" height="20" as="geometry" />
        </mxCell>
        <mxCell id="X3P0a1so8L6fuwu_TgeA-6" value="" style="endArrow=none;html=1;rounded=0;" edge="1" parent="1">
          <mxGeometry width="50" height="50" relative="1" as="geometry">
            <mxPoint x="377.5" y="518" as="sourcePoint" />
            <mxPoint x="377.5" y="498" as="targetPoint" />
          </mxGeometry>
        </mxCell>
        <mxCell id="X3P0a1so8L6fuwu_TgeA-7" value="$$2$$" style="text;html=1;align=center;verticalAlign=middle;whiteSpace=wrap;rounded=0;" vertex="1" parent="1">
          <mxGeometry x="368" y="518" width="20" height="20" as="geometry" />
        </mxCell>
        <mxCell id="X3P0a1so8L6fuwu_TgeA-8" value="" style="endArrow=none;html=1;rounded=0;" edge="1" parent="1">
          <mxGeometry width="50" height="50" relative="1" as="geometry">
            <mxPoint x="261.5" y="518" as="sourcePoint" />
            <mxPoint x="261.5" y="498" as="targetPoint" />
          </mxGeometry>
        </mxCell>
        <mxCell id="X3P0a1so8L6fuwu_TgeA-9" value="$$254$$" style="text;html=1;align=center;verticalAlign=middle;whiteSpace=wrap;rounded=0;" vertex="1" parent="1">
          <mxGeometry x="252" y="518" width="20" height="20" as="geometry" />
        </mxCell>
        <mxCell id="X3P0a1so8L6fuwu_TgeA-10" value="" style="endArrow=none;html=1;rounded=0;" edge="1" parent="1">
          <mxGeometry width="50" height="50" relative="1" as="geometry">
            <mxPoint x="290.5" y="508" as="sourcePoint" />
            <mxPoint x="290.5" y="488" as="targetPoint" />
          </mxGeometry>
        </mxCell>
        <mxCell id="X3P0a1so8L6fuwu_TgeA-11" value="$$255$$" style="text;html=1;align=center;verticalAlign=middle;whiteSpace=wrap;rounded=0;" vertex="1" parent="1">
          <mxGeometry x="281" y="508" width="20" height="20" as="geometry" />
        </mxCell>
        <mxCell id="X3P0a1so8L6fuwu_TgeA-12" value="" style="endArrow=none;html=1;rounded=0;" edge="1" parent="1">
          <mxGeometry width="50" height="50" relative="1" as="geometry">
            <mxPoint x="319.5" y="748" as="sourcePoint" />
            <mxPoint x="319.5" y="728" as="targetPoint" />
          </mxGeometry>
        </mxCell>
        <mxCell id="X3P0a1so8L6fuwu_TgeA-13" value="$$128$$" style="text;html=1;align=center;verticalAlign=middle;whiteSpace=wrap;rounded=0;" vertex="1" parent="1">
          <mxGeometry x="310" y="711" width="20" height="20" as="geometry" />
        </mxCell>
        <mxCell id="X3P0a1so8L6fuwu_TgeA-14" value="" style="endArrow=none;html=1;rounded=0;" edge="1" parent="1">
          <mxGeometry width="50" height="50" relative="1" as="geometry">
            <mxPoint x="380.5" y="738" as="sourcePoint" />
            <mxPoint x="380.5" y="718" as="targetPoint" />
          </mxGeometry>
        </mxCell>
        <mxCell id="X3P0a1so8L6fuwu_TgeA-15" value="$$126$$" style="text;html=1;align=center;verticalAlign=middle;whiteSpace=wrap;rounded=0;" vertex="1" parent="1">
          <mxGeometry x="371" y="698" width="20" height="20" as="geometry" />
        </mxCell>
        <mxCell id="X3P0a1so8L6fuwu_TgeA-16" value="" style="endArrow=none;html=1;rounded=0;" edge="1" parent="1">
          <mxGeometry width="50" height="50" relative="1" as="geometry">
            <mxPoint x="349.5" y="745" as="sourcePoint" />
            <mxPoint x="349.5" y="725" as="targetPoint" />
          </mxGeometry>
        </mxCell>
        <mxCell id="X3P0a1so8L6fuwu_TgeA-17" value="$$127$$" style="text;html=1;align=center;verticalAlign=middle;whiteSpace=wrap;rounded=0;" vertex="1" parent="1">
          <mxGeometry x="340" y="705" width="20" height="20" as="geometry" />
        </mxCell>
        <mxCell id="X3P0a1so8L6fuwu_TgeA-18" value="" style="endArrow=none;html=1;rounded=0;" edge="1" parent="1">
          <mxGeometry width="50" height="50" relative="1" as="geometry">
            <mxPoint x="289.5" y="745" as="sourcePoint" />
            <mxPoint x="289.5" y="725" as="targetPoint" />
          </mxGeometry>
        </mxCell>
        <mxCell id="X3P0a1so8L6fuwu_TgeA-19" value="$$129$$" style="text;html=1;align=center;verticalAlign=middle;whiteSpace=wrap;rounded=0;" vertex="1" parent="1">
          <mxGeometry x="281" y="705" width="20" height="20" as="geometry" />
        </mxCell>
        <mxCell id="X3P0a1so8L6fuwu_TgeA-20" value="" style="endArrow=none;html=1;rounded=0;" edge="1" parent="1">
          <mxGeometry width="50" height="50" relative="1" as="geometry">
            <mxPoint x="260.5" y="738" as="sourcePoint" />
            <mxPoint x="260.5" y="718" as="targetPoint" />
          </mxGeometry>
        </mxCell>
        <mxCell id="X3P0a1so8L6fuwu_TgeA-21" value="$$130$$" style="text;html=1;align=center;verticalAlign=middle;whiteSpace=wrap;rounded=0;" vertex="1" parent="1">
          <mxGeometry x="251" y="698" width="20" height="20" as="geometry" />
        </mxCell>
        <mxCell id="umX6BhGFYgGSXQ-l5XZi-1" value="$$0$$" style="text;html=1;align=center;verticalAlign=middle;whiteSpace=wrap;rounded=0;fontColor=#FF3333;" vertex="1" parent="1">
          <mxGeometry x="310" y="467.99999999999994" width="20" height="20" as="geometry" />
        </mxCell>
        <mxCell id="umX6BhGFYgGSXQ-l5XZi-2" value="$$1$$" style="text;html=1;align=center;verticalAlign=middle;whiteSpace=wrap;rounded=0;fontColor=#FF3333;" vertex="1" parent="1">
          <mxGeometry x="340" y="470.99999999999994" width="20" height="20" as="geometry" />
        </mxCell>
        <mxCell id="umX6BhGFYgGSXQ-l5XZi-3" value="$$2$$" style="text;html=1;align=center;verticalAlign=middle;whiteSpace=wrap;rounded=0;fontColor=#FF3333;" vertex="1" parent="1">
          <mxGeometry x="369" y="479.99999999999994" width="20" height="20" as="geometry" />
        </mxCell>
        <mxCell id="umX6BhGFYgGSXQ-l5XZi-4" value="$$126$$" style="text;html=1;align=center;verticalAlign=middle;whiteSpace=wrap;rounded=0;fontColor=#FF3333;" vertex="1" parent="1">
          <mxGeometry x="371" y="738" width="20" height="20" as="geometry" />
        </mxCell>
        <mxCell id="umX6BhGFYgGSXQ-l5XZi-5" value="$$127$$" style="text;html=1;align=center;verticalAlign=middle;whiteSpace=wrap;rounded=0;fontColor=#FF3333;" vertex="1" parent="1">
          <mxGeometry x="340" y="743" width="20" height="20" as="geometry" />
        </mxCell>
        <mxCell id="umX6BhGFYgGSXQ-l5XZi-6" value="$$-128$$" style="text;html=1;align=center;verticalAlign=middle;whiteSpace=wrap;rounded=0;fontColor=#FF3333;" vertex="1" parent="1">
          <mxGeometry x="307" y="751" width="20" height="20" as="geometry" />
        </mxCell>
        <mxCell id="A7PoDgvtWcqvNTW-0geX-1" value="$$-127$$" style="text;html=1;align=center;verticalAlign=middle;whiteSpace=wrap;rounded=0;fontColor=#FF3333;" vertex="1" parent="1">
          <mxGeometry x="281" y="743" width="20" height="20" as="geometry" />
        </mxCell>
        <mxCell id="Famrtp3tfrufNCcNgTG2-1" value="$$-126$$" style="text;html=1;align=center;verticalAlign=middle;whiteSpace=wrap;rounded=0;fontColor=#FF3333;" vertex="1" parent="1">
          <mxGeometry x="250" y="738" width="20" height="20" as="geometry" />
        </mxCell>
        <mxCell id="Famrtp3tfrufNCcNgTG2-2" value="$$-2$$" style="text;html=1;align=center;verticalAlign=middle;whiteSpace=wrap;rounded=0;fontColor=#FF3333;" vertex="1" parent="1">
          <mxGeometry x="252" y="481.99999999999994" width="20" height="20" as="geometry" />
        </mxCell>
        <mxCell id="Famrtp3tfrufNCcNgTG2-3" value="$$-1$$" style="text;html=1;align=center;verticalAlign=middle;whiteSpace=wrap;rounded=0;fontColor=#FF3333;" vertex="1" parent="1">
          <mxGeometry x="280" y="471.99999999999994" width="20" height="20" as="geometry" />
        </mxCell>
        <mxCell id="Cff3j4E-LESseokgVbSA-2" value="" style="endArrow=none;html=1;rounded=0;" edge="1" parent="1">
          <mxGeometry width="50" height="50" relative="1" as="geometry">
            <mxPoint x="360.28999999999996" y="418.29" as="sourcePoint" />
            <mxPoint x="360.28999999999996" y="408.29" as="targetPoint" />
          </mxGeometry>
        </mxCell>
        <mxCell id="Cff3j4E-LESseokgVbSA-3" value="" style="endArrow=none;html=1;rounded=0;" edge="1" parent="1">
          <mxGeometry width="50" height="50" relative="1" as="geometry">
            <mxPoint x="359.99999999999994" y="418" as="sourcePoint" />
            <mxPoint x="399.99999999999994" y="418" as="targetPoint" />
          </mxGeometry>
        </mxCell>
        <mxCell id="Cff3j4E-LESseokgVbSA-4" value="" style="endArrow=none;html=1;rounded=0;" edge="1" parent="1">
          <mxGeometry width="50" height="50" relative="1" as="geometry">
            <mxPoint x="360.28999999999996" y="418.29" as="sourcePoint" />
            <mxPoint x="360.28999999999996" y="408.29" as="targetPoint" />
          </mxGeometry>
        </mxCell>
        <mxCell id="Cff3j4E-LESseokgVbSA-5" value="" style="endArrow=none;html=1;rounded=0;" edge="1" parent="1">
          <mxGeometry width="50" height="50" relative="1" as="geometry">
            <mxPoint x="400.28999999999996" y="418.29" as="sourcePoint" />
            <mxPoint x="400.28999999999996" y="408.29" as="targetPoint" />
          </mxGeometry>
        </mxCell>
        <mxCell id="Cff3j4E-LESseokgVbSA-6" value="" style="endArrow=none;html=1;rounded=0;" edge="1" parent="1">
          <mxGeometry width="50" height="50" relative="1" as="geometry">
            <mxPoint x="399.89" y="418" as="sourcePoint" />
            <mxPoint x="399.89" y="408" as="targetPoint" />
          </mxGeometry>
        </mxCell>
        <mxCell id="Cff3j4E-LESseokgVbSA-7" value="$$130$$" style="text;html=1;align=center;verticalAlign=middle;whiteSpace=wrap;rounded=0;" vertex="1" parent="1">
          <mxGeometry x="391" y="418" width="20" height="20" as="geometry" />
        </mxCell>
        <mxCell id="Cff3j4E-LESseokgVbSA-8" value="$$-126$$" style="text;html=1;align=center;verticalAlign=middle;whiteSpace=wrap;rounded=0;fontColor=#FF3333;" vertex="1" parent="1">
          <mxGeometry x="388" y="388.56999999999994" width="20" height="20" as="geometry" />
        </mxCell>
        <mxCell id="Sgc3CSrU17ZOP4aUAYfG-1" value="" style="endArrow=none;html=1;rounded=0;" edge="1" parent="1">
          <mxGeometry width="50" height="50" relative="1" as="geometry">
            <mxPoint x="120" y="418" as="sourcePoint" />
            <mxPoint x="120" y="408" as="targetPoint" />
          </mxGeometry>
        </mxCell>
        <mxCell id="Sgc3CSrU17ZOP4aUAYfG-2" value="" style="endArrow=none;html=1;rounded=0;" edge="1" parent="1">
          <mxGeometry width="50" height="50" relative="1" as="geometry">
            <mxPoint x="120" y="418" as="sourcePoint" />
            <mxPoint x="160" y="418" as="targetPoint" />
          </mxGeometry>
        </mxCell>
        <mxCell id="Sgc3CSrU17ZOP4aUAYfG-3" value="" style="endArrow=none;html=1;rounded=0;" edge="1" parent="1">
          <mxGeometry width="50" height="50" relative="1" as="geometry">
            <mxPoint x="120" y="418" as="sourcePoint" />
            <mxPoint x="120" y="408" as="targetPoint" />
          </mxGeometry>
        </mxCell>
        <mxCell id="Sgc3CSrU17ZOP4aUAYfG-4" value="" style="endArrow=none;html=1;rounded=0;" edge="1" parent="1">
          <mxGeometry width="50" height="50" relative="1" as="geometry">
            <mxPoint x="160" y="418" as="sourcePoint" />
            <mxPoint x="160" y="408" as="targetPoint" />
          </mxGeometry>
        </mxCell>
        <mxCell id="Sgc3CSrU17ZOP4aUAYfG-5" value="$$3$$" style="text;html=1;align=center;verticalAlign=middle;whiteSpace=wrap;rounded=0;" vertex="1" parent="1">
          <mxGeometry x="150" y="418" width="20" height="20" as="geometry" />
        </mxCell>
        <mxCell id="Sgc3CSrU17ZOP4aUAYfG-6" value="$$3$$" style="text;html=1;align=center;verticalAlign=middle;whiteSpace=wrap;rounded=0;fontColor=#FF3333;" vertex="1" parent="1">
          <mxGeometry x="150" y="388.56999999999994" width="20" height="20" as="geometry" />
        </mxCell>
        <mxCell id="qClyLEkXCB_6UZPmJpFI-1" value="" style="endArrow=none;html=1;rounded=0;" edge="1" parent="1">
          <mxGeometry width="50" height="50" relative="1" as="geometry">
            <mxPoint x="40" y="99" as="sourcePoint" />
            <mxPoint x="80" y="99" as="targetPoint" />
          </mxGeometry>
        </mxCell>
        <mxCell id="qClyLEkXCB_6UZPmJpFI-2" value="" style="endArrow=none;html=1;rounded=0;" edge="1" parent="1">
          <mxGeometry width="50" height="50" relative="1" as="geometry">
            <mxPoint x="40" y="99" as="sourcePoint" />
            <mxPoint x="40" y="89" as="targetPoint" />
          </mxGeometry>
        </mxCell>
        <mxCell id="qClyLEkXCB_6UZPmJpFI-3" value="" style="endArrow=none;html=1;rounded=0;" edge="1" parent="1">
          <mxGeometry width="50" height="50" relative="1" as="geometry">
            <mxPoint x="80" y="99" as="sourcePoint" />
            <mxPoint x="80" y="89" as="targetPoint" />
          </mxGeometry>
        </mxCell>
        <mxCell id="qClyLEkXCB_6UZPmJpFI-4" value="" style="endArrow=none;html=1;rounded=0;" edge="1" parent="1">
          <mxGeometry width="50" height="50" relative="1" as="geometry">
            <mxPoint x="80" y="99" as="sourcePoint" />
            <mxPoint x="120" y="99" as="targetPoint" />
          </mxGeometry>
        </mxCell>
        <mxCell id="qClyLEkXCB_6UZPmJpFI-5" value="" style="endArrow=none;html=1;rounded=0;" edge="1" parent="1">
          <mxGeometry width="50" height="50" relative="1" as="geometry">
            <mxPoint x="80" y="99" as="sourcePoint" />
            <mxPoint x="80" y="89" as="targetPoint" />
          </mxGeometry>
        </mxCell>
        <mxCell id="qClyLEkXCB_6UZPmJpFI-6" value="" style="endArrow=none;html=1;rounded=0;" edge="1" parent="1">
          <mxGeometry width="50" height="50" relative="1" as="geometry">
            <mxPoint x="160" y="99" as="sourcePoint" />
            <mxPoint x="160" y="89" as="targetPoint" />
          </mxGeometry>
        </mxCell>
        <mxCell id="qClyLEkXCB_6UZPmJpFI-7" value="" style="endArrow=none;html=1;rounded=0;" edge="1" parent="1">
          <mxGeometry width="50" height="50" relative="1" as="geometry">
            <mxPoint x="160" y="99" as="sourcePoint" />
            <mxPoint x="160" y="89" as="targetPoint" />
          </mxGeometry>
        </mxCell>
        <mxCell id="qClyLEkXCB_6UZPmJpFI-8" value="$$0$$" style="text;html=1;align=center;verticalAlign=middle;whiteSpace=wrap;rounded=0;" vertex="1" parent="1">
          <mxGeometry x="30" y="99" width="20" height="20" as="geometry" />
        </mxCell>
        <mxCell id="qClyLEkXCB_6UZPmJpFI-9" value="$$1$$" style="text;html=1;align=center;verticalAlign=middle;whiteSpace=wrap;rounded=0;" vertex="1" parent="1">
          <mxGeometry x="70" y="99" width="20" height="20" as="geometry" />
        </mxCell>
        <mxCell id="qClyLEkXCB_6UZPmJpFI-10" value="$$2$$" style="text;html=1;align=center;verticalAlign=middle;whiteSpace=wrap;rounded=0;" vertex="1" parent="1">
          <mxGeometry x="110" y="99" width="20" height="20" as="geometry" />
        </mxCell>
        <mxCell id="qClyLEkXCB_6UZPmJpFI-11" value="" style="endArrow=none;html=1;rounded=0;exitX=0.5;exitY=0;exitDx=0;exitDy=0;dashed=1;" edge="1" parent="1">
          <mxGeometry width="50" height="50" relative="1" as="geometry">
            <mxPoint x="160" y="98.99999999999989" as="sourcePoint" />
            <mxPoint x="240" y="99" as="targetPoint" />
          </mxGeometry>
        </mxCell>
        <mxCell id="qClyLEkXCB_6UZPmJpFI-12" value="" style="endArrow=none;html=1;rounded=0;" edge="1" parent="1">
          <mxGeometry width="50" height="50" relative="1" as="geometry">
            <mxPoint x="240" y="99" as="sourcePoint" />
            <mxPoint x="280" y="99" as="targetPoint" />
          </mxGeometry>
        </mxCell>
        <mxCell id="qClyLEkXCB_6UZPmJpFI-13" value="" style="endArrow=none;html=1;rounded=0;" edge="1" parent="1">
          <mxGeometry width="50" height="50" relative="1" as="geometry">
            <mxPoint x="240" y="99" as="sourcePoint" />
            <mxPoint x="240" y="89" as="targetPoint" />
          </mxGeometry>
        </mxCell>
        <mxCell id="qClyLEkXCB_6UZPmJpFI-14" value="" style="endArrow=none;html=1;rounded=0;" edge="1" parent="1">
          <mxGeometry width="50" height="50" relative="1" as="geometry">
            <mxPoint x="280" y="99" as="sourcePoint" />
            <mxPoint x="280" y="89" as="targetPoint" />
          </mxGeometry>
        </mxCell>
        <mxCell id="qClyLEkXCB_6UZPmJpFI-15" value="" style="endArrow=none;html=1;rounded=0;" edge="1" parent="1">
          <mxGeometry width="50" height="50" relative="1" as="geometry">
            <mxPoint x="280" y="99" as="sourcePoint" />
            <mxPoint x="320" y="99" as="targetPoint" />
          </mxGeometry>
        </mxCell>
        <mxCell id="qClyLEkXCB_6UZPmJpFI-16" value="" style="endArrow=none;html=1;rounded=0;" edge="1" parent="1">
          <mxGeometry width="50" height="50" relative="1" as="geometry">
            <mxPoint x="280" y="99" as="sourcePoint" />
            <mxPoint x="280" y="89" as="targetPoint" />
          </mxGeometry>
        </mxCell>
        <mxCell id="qClyLEkXCB_6UZPmJpFI-17" value="" style="endArrow=none;html=1;rounded=0;" edge="1" parent="1">
          <mxGeometry width="50" height="50" relative="1" as="geometry">
            <mxPoint x="320" y="99" as="sourcePoint" />
            <mxPoint x="320" y="89" as="targetPoint" />
          </mxGeometry>
        </mxCell>
        <mxCell id="qClyLEkXCB_6UZPmJpFI-18" value="" style="endArrow=none;html=1;rounded=0;" edge="1" parent="1">
          <mxGeometry width="50" height="50" relative="1" as="geometry">
            <mxPoint x="320" y="99" as="sourcePoint" />
            <mxPoint x="360" y="99" as="targetPoint" />
          </mxGeometry>
        </mxCell>
        <mxCell id="qClyLEkXCB_6UZPmJpFI-19" value="" style="endArrow=none;html=1;rounded=0;" edge="1" parent="1">
          <mxGeometry width="50" height="50" relative="1" as="geometry">
            <mxPoint x="320" y="99" as="sourcePoint" />
            <mxPoint x="320" y="89" as="targetPoint" />
          </mxGeometry>
        </mxCell>
        <mxCell id="qClyLEkXCB_6UZPmJpFI-20" value="$$126$$" style="text;html=1;align=center;verticalAlign=middle;whiteSpace=wrap;rounded=0;" vertex="1" parent="1">
          <mxGeometry x="230" y="99" width="20" height="20" as="geometry" />
        </mxCell>
        <mxCell id="qClyLEkXCB_6UZPmJpFI-21" value="$$127$$" style="text;html=1;align=center;verticalAlign=middle;whiteSpace=wrap;rounded=0;" vertex="1" parent="1">
          <mxGeometry x="270" y="99" width="20" height="20" as="geometry" />
        </mxCell>
        <mxCell id="qClyLEkXCB_6UZPmJpFI-22" value="$$128$$" style="text;html=1;align=center;verticalAlign=middle;whiteSpace=wrap;rounded=0;" vertex="1" parent="1">
          <mxGeometry x="310" y="99" width="20" height="20" as="geometry" />
        </mxCell>
        <mxCell id="qClyLEkXCB_6UZPmJpFI-23" value="$$129$$" style="text;html=1;align=center;verticalAlign=middle;whiteSpace=wrap;rounded=0;" vertex="1" parent="1">
          <mxGeometry x="350" y="99" width="20" height="20" as="geometry" />
        </mxCell>
        <mxCell id="qClyLEkXCB_6UZPmJpFI-24" value="" style="endArrow=none;html=1;rounded=0;exitX=0.5;exitY=0;exitDx=0;exitDy=0;dashed=1;" edge="1" parent="1">
          <mxGeometry width="50" height="50" relative="1" as="geometry">
            <mxPoint x="399" y="99" as="sourcePoint" />
            <mxPoint x="479" y="99" as="targetPoint" />
          </mxGeometry>
        </mxCell>
        <mxCell id="qClyLEkXCB_6UZPmJpFI-25" value="" style="endArrow=none;html=1;rounded=0;" edge="1" parent="1">
          <mxGeometry width="50" height="50" relative="1" as="geometry">
            <mxPoint x="479" y="99" as="sourcePoint" />
            <mxPoint x="519" y="99" as="targetPoint" />
          </mxGeometry>
        </mxCell>
        <mxCell id="qClyLEkXCB_6UZPmJpFI-26" value="" style="endArrow=none;html=1;rounded=0;" edge="1" parent="1">
          <mxGeometry width="50" height="50" relative="1" as="geometry">
            <mxPoint x="479" y="99" as="sourcePoint" />
            <mxPoint x="479" y="89" as="targetPoint" />
          </mxGeometry>
        </mxCell>
        <mxCell id="qClyLEkXCB_6UZPmJpFI-27" value="" style="endArrow=none;html=1;rounded=0;" edge="1" parent="1">
          <mxGeometry width="50" height="50" relative="1" as="geometry">
            <mxPoint x="519" y="99" as="sourcePoint" />
            <mxPoint x="519" y="89" as="targetPoint" />
          </mxGeometry>
        </mxCell>
        <mxCell id="qClyLEkXCB_6UZPmJpFI-28" value="" style="endArrow=none;html=1;rounded=0;" edge="1" parent="1">
          <mxGeometry width="50" height="50" relative="1" as="geometry">
            <mxPoint x="519" y="99" as="sourcePoint" />
            <mxPoint x="559" y="99" as="targetPoint" />
          </mxGeometry>
        </mxCell>
        <mxCell id="qClyLEkXCB_6UZPmJpFI-29" value="" style="endArrow=none;html=1;rounded=0;" edge="1" parent="1">
          <mxGeometry width="50" height="50" relative="1" as="geometry">
            <mxPoint x="519" y="99" as="sourcePoint" />
            <mxPoint x="519" y="89" as="targetPoint" />
          </mxGeometry>
        </mxCell>
        <mxCell id="qClyLEkXCB_6UZPmJpFI-30" value="" style="endArrow=none;html=1;rounded=0;" edge="1" parent="1">
          <mxGeometry width="50" height="50" relative="1" as="geometry">
            <mxPoint x="559" y="99" as="sourcePoint" />
            <mxPoint x="559" y="89" as="targetPoint" />
          </mxGeometry>
        </mxCell>
        <mxCell id="qClyLEkXCB_6UZPmJpFI-31" value="" style="endArrow=none;html=1;rounded=0;" edge="1" parent="1">
          <mxGeometry width="50" height="50" relative="1" as="geometry">
            <mxPoint x="559" y="99" as="sourcePoint" />
            <mxPoint x="599" y="99" as="targetPoint" />
          </mxGeometry>
        </mxCell>
        <mxCell id="qClyLEkXCB_6UZPmJpFI-32" value="" style="endArrow=none;html=1;rounded=0;" edge="1" parent="1">
          <mxGeometry width="50" height="50" relative="1" as="geometry">
            <mxPoint x="559" y="99" as="sourcePoint" />
            <mxPoint x="559" y="89" as="targetPoint" />
          </mxGeometry>
        </mxCell>
        <mxCell id="qClyLEkXCB_6UZPmJpFI-33" value="" style="endArrow=none;html=1;rounded=0;" edge="1" parent="1">
          <mxGeometry width="50" height="50" relative="1" as="geometry">
            <mxPoint x="599" y="99" as="sourcePoint" />
            <mxPoint x="599" y="89" as="targetPoint" />
          </mxGeometry>
        </mxCell>
        <mxCell id="qClyLEkXCB_6UZPmJpFI-34" value="$$252$$" style="text;html=1;align=center;verticalAlign=middle;whiteSpace=wrap;rounded=0;" vertex="1" parent="1">
          <mxGeometry x="469" y="99" width="20" height="20" as="geometry" />
        </mxCell>
        <mxCell id="qClyLEkXCB_6UZPmJpFI-35" value="$$253$$" style="text;html=1;align=center;verticalAlign=middle;whiteSpace=wrap;rounded=0;" vertex="1" parent="1">
          <mxGeometry x="509" y="99" width="20" height="20" as="geometry" />
        </mxCell>
        <mxCell id="qClyLEkXCB_6UZPmJpFI-36" value="$$254$$" style="text;html=1;align=center;verticalAlign=middle;whiteSpace=wrap;rounded=0;" vertex="1" parent="1">
          <mxGeometry x="549" y="99" width="20" height="20" as="geometry" />
        </mxCell>
        <mxCell id="qClyLEkXCB_6UZPmJpFI-37" value="$$255$$" style="text;html=1;align=center;verticalAlign=middle;whiteSpace=wrap;rounded=0;" vertex="1" parent="1">
          <mxGeometry x="589" y="99" width="20" height="20" as="geometry" />
        </mxCell>
        <mxCell id="qClyLEkXCB_6UZPmJpFI-38" value="$$0$$" style="text;html=1;align=center;verticalAlign=middle;whiteSpace=wrap;rounded=0;fontColor=#FF3333;" vertex="1" parent="1">
          <mxGeometry x="30" y="69.56999999999994" width="20" height="20" as="geometry" />
        </mxCell>
        <mxCell id="qClyLEkXCB_6UZPmJpFI-39" value="$$1$$" style="text;html=1;align=center;verticalAlign=middle;whiteSpace=wrap;rounded=0;fontColor=#FF3333;" vertex="1" parent="1">
          <mxGeometry x="70" y="69.56999999999994" width="20" height="20" as="geometry" />
        </mxCell>
        <mxCell id="qClyLEkXCB_6UZPmJpFI-40" value="$$2$$" style="text;html=1;align=center;verticalAlign=middle;whiteSpace=wrap;rounded=0;fontColor=#FF3333;" vertex="1" parent="1">
          <mxGeometry x="110" y="69.56999999999994" width="20" height="20" as="geometry" />
        </mxCell>
        <mxCell id="qClyLEkXCB_6UZPmJpFI-41" value="$$126$$" style="text;html=1;align=center;verticalAlign=middle;whiteSpace=wrap;rounded=0;fontColor=#FF3333;" vertex="1" parent="1">
          <mxGeometry x="230" y="69.56999999999994" width="20" height="20" as="geometry" />
        </mxCell>
        <mxCell id="qClyLEkXCB_6UZPmJpFI-42" value="$$127$$" style="text;html=1;align=center;verticalAlign=middle;whiteSpace=wrap;rounded=0;fontColor=#FF3333;" vertex="1" parent="1">
          <mxGeometry x="270" y="69.56999999999994" width="20" height="20" as="geometry" />
        </mxCell>
        <mxCell id="qClyLEkXCB_6UZPmJpFI-43" value="$$-0$$" style="text;html=1;align=center;verticalAlign=middle;whiteSpace=wrap;rounded=0;fontColor=#FF3333;" vertex="1" parent="1">
          <mxGeometry x="310" y="69.56999999999994" width="20" height="20" as="geometry" />
        </mxCell>
        <mxCell id="qClyLEkXCB_6UZPmJpFI-44" value="$$-1$$" style="text;html=1;align=center;verticalAlign=middle;whiteSpace=wrap;rounded=0;fontColor=#FF3333;" vertex="1" parent="1">
          <mxGeometry x="350" y="69.56999999999994" width="20" height="20" as="geometry" />
        </mxCell>
        <mxCell id="qClyLEkXCB_6UZPmJpFI-45" value="$$-124$$" style="text;html=1;align=center;verticalAlign=middle;whiteSpace=wrap;rounded=0;fontColor=#FF3333;" vertex="1" parent="1">
          <mxGeometry x="469" y="69.56999999999994" width="20" height="20" as="geometry" />
        </mxCell>
        <mxCell id="qClyLEkXCB_6UZPmJpFI-46" value="$$-125$$" style="text;html=1;align=center;verticalAlign=middle;whiteSpace=wrap;rounded=0;fontColor=#FF3333;" vertex="1" parent="1">
          <mxGeometry x="509" y="69.56999999999994" width="20" height="20" as="geometry" />
        </mxCell>
        <mxCell id="qClyLEkXCB_6UZPmJpFI-47" value="$$-126$$" style="text;html=1;align=center;verticalAlign=middle;whiteSpace=wrap;rounded=0;fontColor=#FF3333;" vertex="1" parent="1">
          <mxGeometry x="549" y="69.56999999999994" width="20" height="20" as="geometry" />
        </mxCell>
        <mxCell id="qClyLEkXCB_6UZPmJpFI-48" value="$$-127$$" style="text;html=1;align=center;verticalAlign=middle;whiteSpace=wrap;rounded=0;fontColor=#FF3333;" vertex="1" parent="1">
          <mxGeometry x="589" y="69.56999999999994" width="20" height="20" as="geometry" />
        </mxCell>
        <mxCell id="qClyLEkXCB_6UZPmJpFI-49" value="" style="endArrow=none;html=1;rounded=0;" edge="1" parent="1">
          <mxGeometry width="50" height="50" relative="1" as="geometry">
            <mxPoint x="360.28999999999996" y="99.29000000000002" as="sourcePoint" />
            <mxPoint x="360.28999999999996" y="89.29000000000002" as="targetPoint" />
          </mxGeometry>
        </mxCell>
        <mxCell id="qClyLEkXCB_6UZPmJpFI-50" value="" style="endArrow=none;html=1;rounded=0;" edge="1" parent="1">
          <mxGeometry width="50" height="50" relative="1" as="geometry">
            <mxPoint x="359.99999999999994" y="99" as="sourcePoint" />
            <mxPoint x="399.99999999999994" y="99" as="targetPoint" />
          </mxGeometry>
        </mxCell>
        <mxCell id="qClyLEkXCB_6UZPmJpFI-51" value="" style="endArrow=none;html=1;rounded=0;" edge="1" parent="1">
          <mxGeometry width="50" height="50" relative="1" as="geometry">
            <mxPoint x="360.28999999999996" y="99.29000000000002" as="sourcePoint" />
            <mxPoint x="360.28999999999996" y="89.29000000000002" as="targetPoint" />
          </mxGeometry>
        </mxCell>
        <mxCell id="qClyLEkXCB_6UZPmJpFI-52" value="" style="endArrow=none;html=1;rounded=0;" edge="1" parent="1">
          <mxGeometry width="50" height="50" relative="1" as="geometry">
            <mxPoint x="400.28999999999996" y="99.29000000000002" as="sourcePoint" />
            <mxPoint x="400.28999999999996" y="89.29000000000002" as="targetPoint" />
          </mxGeometry>
        </mxCell>
        <mxCell id="qClyLEkXCB_6UZPmJpFI-53" value="" style="endArrow=none;html=1;rounded=0;" edge="1" parent="1">
          <mxGeometry width="50" height="50" relative="1" as="geometry">
            <mxPoint x="399.89" y="99" as="sourcePoint" />
            <mxPoint x="399.89" y="89" as="targetPoint" />
          </mxGeometry>
        </mxCell>
        <mxCell id="qClyLEkXCB_6UZPmJpFI-54" value="$$130$$" style="text;html=1;align=center;verticalAlign=middle;whiteSpace=wrap;rounded=0;" vertex="1" parent="1">
          <mxGeometry x="391" y="99" width="20" height="20" as="geometry" />
        </mxCell>
        <mxCell id="qClyLEkXCB_6UZPmJpFI-55" value="$$-2$$" style="text;html=1;align=center;verticalAlign=middle;whiteSpace=wrap;rounded=0;fontColor=#FF3333;" vertex="1" parent="1">
          <mxGeometry x="388" y="69.56999999999994" width="20" height="20" as="geometry" />
        </mxCell>
        <mxCell id="qClyLEkXCB_6UZPmJpFI-56" value="" style="endArrow=none;html=1;rounded=0;" edge="1" parent="1">
          <mxGeometry width="50" height="50" relative="1" as="geometry">
            <mxPoint x="120" y="99" as="sourcePoint" />
            <mxPoint x="120" y="89" as="targetPoint" />
          </mxGeometry>
        </mxCell>
        <mxCell id="qClyLEkXCB_6UZPmJpFI-57" value="" style="endArrow=none;html=1;rounded=0;" edge="1" parent="1">
          <mxGeometry width="50" height="50" relative="1" as="geometry">
            <mxPoint x="120" y="99" as="sourcePoint" />
            <mxPoint x="160" y="99" as="targetPoint" />
          </mxGeometry>
        </mxCell>
        <mxCell id="qClyLEkXCB_6UZPmJpFI-58" value="" style="endArrow=none;html=1;rounded=0;" edge="1" parent="1">
          <mxGeometry width="50" height="50" relative="1" as="geometry">
            <mxPoint x="120" y="99" as="sourcePoint" />
            <mxPoint x="120" y="89" as="targetPoint" />
          </mxGeometry>
        </mxCell>
        <mxCell id="qClyLEkXCB_6UZPmJpFI-59" value="" style="endArrow=none;html=1;rounded=0;" edge="1" parent="1">
          <mxGeometry width="50" height="50" relative="1" as="geometry">
            <mxPoint x="160" y="99" as="sourcePoint" />
            <mxPoint x="160" y="89" as="targetPoint" />
          </mxGeometry>
        </mxCell>
        <mxCell id="qClyLEkXCB_6UZPmJpFI-60" value="$$3$$" style="text;html=1;align=center;verticalAlign=middle;whiteSpace=wrap;rounded=0;" vertex="1" parent="1">
          <mxGeometry x="150" y="99" width="20" height="20" as="geometry" />
        </mxCell>
        <mxCell id="qClyLEkXCB_6UZPmJpFI-61" value="$$3$$" style="text;html=1;align=center;verticalAlign=middle;whiteSpace=wrap;rounded=0;fontColor=#FF3333;" vertex="1" parent="1">
          <mxGeometry x="150" y="69.56999999999994" width="20" height="20" as="geometry" />
        </mxCell>
        <mxCell id="qClyLEkXCB_6UZPmJpFI-62" value="&lt;font&gt;Signed Int8 原码&lt;/font&gt;" style="text;html=1;align=center;verticalAlign=middle;whiteSpace=wrap;rounded=0;fontColor=#FF3333;" vertex="1" parent="1">
          <mxGeometry x="40" y="39.56999999999999" width="100" height="30" as="geometry" />
        </mxCell>
        <mxCell id="qClyLEkXCB_6UZPmJpFI-63" value="&lt;font&gt;Unsigned Int8&lt;/font&gt;" style="text;html=1;align=center;verticalAlign=middle;whiteSpace=wrap;rounded=0;fontColor=default;" vertex="1" parent="1">
          <mxGeometry x="40" y="119" width="80" height="30" as="geometry" />
        </mxCell>
        <mxCell id="LC6CZuk3xvm4SW736iO--64" value="" style="endArrow=none;html=1;rounded=0;" edge="1" parent="1">
          <mxGeometry width="50" height="50" relative="1" as="geometry">
            <mxPoint x="40" y="260" as="sourcePoint" />
            <mxPoint x="80" y="260" as="targetPoint" />
          </mxGeometry>
        </mxCell>
        <mxCell id="LC6CZuk3xvm4SW736iO--65" value="" style="endArrow=none;html=1;rounded=0;" edge="1" parent="1">
          <mxGeometry width="50" height="50" relative="1" as="geometry">
            <mxPoint x="40" y="260" as="sourcePoint" />
            <mxPoint x="40" y="250" as="targetPoint" />
          </mxGeometry>
        </mxCell>
        <mxCell id="LC6CZuk3xvm4SW736iO--66" value="" style="endArrow=none;html=1;rounded=0;" edge="1" parent="1">
          <mxGeometry width="50" height="50" relative="1" as="geometry">
            <mxPoint x="80" y="260" as="sourcePoint" />
            <mxPoint x="80" y="250" as="targetPoint" />
          </mxGeometry>
        </mxCell>
        <mxCell id="LC6CZuk3xvm4SW736iO--67" value="" style="endArrow=none;html=1;rounded=0;" edge="1" parent="1">
          <mxGeometry width="50" height="50" relative="1" as="geometry">
            <mxPoint x="80" y="260" as="sourcePoint" />
            <mxPoint x="120" y="260" as="targetPoint" />
          </mxGeometry>
        </mxCell>
        <mxCell id="LC6CZuk3xvm4SW736iO--68" value="" style="endArrow=none;html=1;rounded=0;" edge="1" parent="1">
          <mxGeometry width="50" height="50" relative="1" as="geometry">
            <mxPoint x="80" y="260" as="sourcePoint" />
            <mxPoint x="80" y="250" as="targetPoint" />
          </mxGeometry>
        </mxCell>
        <mxCell id="LC6CZuk3xvm4SW736iO--69" value="" style="endArrow=none;html=1;rounded=0;" edge="1" parent="1">
          <mxGeometry width="50" height="50" relative="1" as="geometry">
            <mxPoint x="160" y="260" as="sourcePoint" />
            <mxPoint x="160" y="250" as="targetPoint" />
          </mxGeometry>
        </mxCell>
        <mxCell id="LC6CZuk3xvm4SW736iO--70" value="" style="endArrow=none;html=1;rounded=0;" edge="1" parent="1">
          <mxGeometry width="50" height="50" relative="1" as="geometry">
            <mxPoint x="160" y="260" as="sourcePoint" />
            <mxPoint x="160" y="250" as="targetPoint" />
          </mxGeometry>
        </mxCell>
        <mxCell id="LC6CZuk3xvm4SW736iO--71" value="$$0$$" style="text;html=1;align=center;verticalAlign=middle;whiteSpace=wrap;rounded=0;" vertex="1" parent="1">
          <mxGeometry x="30" y="260" width="20" height="20" as="geometry" />
        </mxCell>
        <mxCell id="LC6CZuk3xvm4SW736iO--72" value="$$1$$" style="text;html=1;align=center;verticalAlign=middle;whiteSpace=wrap;rounded=0;" vertex="1" parent="1">
          <mxGeometry x="70" y="260" width="20" height="20" as="geometry" />
        </mxCell>
        <mxCell id="LC6CZuk3xvm4SW736iO--73" value="$$2$$" style="text;html=1;align=center;verticalAlign=middle;whiteSpace=wrap;rounded=0;" vertex="1" parent="1">
          <mxGeometry x="110" y="260" width="20" height="20" as="geometry" />
        </mxCell>
        <mxCell id="LC6CZuk3xvm4SW736iO--74" value="" style="endArrow=none;html=1;rounded=0;exitX=0.5;exitY=0;exitDx=0;exitDy=0;dashed=1;" edge="1" parent="1">
          <mxGeometry width="50" height="50" relative="1" as="geometry">
            <mxPoint x="160" y="259.9999999999999" as="sourcePoint" />
            <mxPoint x="240" y="260" as="targetPoint" />
          </mxGeometry>
        </mxCell>
        <mxCell id="LC6CZuk3xvm4SW736iO--75" value="" style="endArrow=none;html=1;rounded=0;" edge="1" parent="1">
          <mxGeometry width="50" height="50" relative="1" as="geometry">
            <mxPoint x="240" y="260" as="sourcePoint" />
            <mxPoint x="280" y="260" as="targetPoint" />
          </mxGeometry>
        </mxCell>
        <mxCell id="LC6CZuk3xvm4SW736iO--76" value="" style="endArrow=none;html=1;rounded=0;" edge="1" parent="1">
          <mxGeometry width="50" height="50" relative="1" as="geometry">
            <mxPoint x="240" y="260" as="sourcePoint" />
            <mxPoint x="240" y="250" as="targetPoint" />
          </mxGeometry>
        </mxCell>
        <mxCell id="LC6CZuk3xvm4SW736iO--77" value="" style="endArrow=none;html=1;rounded=0;" edge="1" parent="1">
          <mxGeometry width="50" height="50" relative="1" as="geometry">
            <mxPoint x="280" y="260" as="sourcePoint" />
            <mxPoint x="280" y="250" as="targetPoint" />
          </mxGeometry>
        </mxCell>
        <mxCell id="LC6CZuk3xvm4SW736iO--78" value="" style="endArrow=none;html=1;rounded=0;" edge="1" parent="1">
          <mxGeometry width="50" height="50" relative="1" as="geometry">
            <mxPoint x="280" y="260" as="sourcePoint" />
            <mxPoint x="320" y="260" as="targetPoint" />
          </mxGeometry>
        </mxCell>
        <mxCell id="LC6CZuk3xvm4SW736iO--79" value="" style="endArrow=none;html=1;rounded=0;" edge="1" parent="1">
          <mxGeometry width="50" height="50" relative="1" as="geometry">
            <mxPoint x="280" y="260" as="sourcePoint" />
            <mxPoint x="280" y="250" as="targetPoint" />
          </mxGeometry>
        </mxCell>
        <mxCell id="LC6CZuk3xvm4SW736iO--80" value="" style="endArrow=none;html=1;rounded=0;" edge="1" parent="1">
          <mxGeometry width="50" height="50" relative="1" as="geometry">
            <mxPoint x="320" y="260" as="sourcePoint" />
            <mxPoint x="320" y="250" as="targetPoint" />
          </mxGeometry>
        </mxCell>
        <mxCell id="LC6CZuk3xvm4SW736iO--81" value="" style="endArrow=none;html=1;rounded=0;" edge="1" parent="1">
          <mxGeometry width="50" height="50" relative="1" as="geometry">
            <mxPoint x="320" y="260" as="sourcePoint" />
            <mxPoint x="360" y="260" as="targetPoint" />
          </mxGeometry>
        </mxCell>
        <mxCell id="LC6CZuk3xvm4SW736iO--82" value="" style="endArrow=none;html=1;rounded=0;" edge="1" parent="1">
          <mxGeometry width="50" height="50" relative="1" as="geometry">
            <mxPoint x="320" y="260" as="sourcePoint" />
            <mxPoint x="320" y="250" as="targetPoint" />
          </mxGeometry>
        </mxCell>
        <mxCell id="LC6CZuk3xvm4SW736iO--83" value="$$126$$" style="text;html=1;align=center;verticalAlign=middle;whiteSpace=wrap;rounded=0;" vertex="1" parent="1">
          <mxGeometry x="230" y="260" width="20" height="20" as="geometry" />
        </mxCell>
        <mxCell id="LC6CZuk3xvm4SW736iO--84" value="$$127$$" style="text;html=1;align=center;verticalAlign=middle;whiteSpace=wrap;rounded=0;" vertex="1" parent="1">
          <mxGeometry x="270" y="260" width="20" height="20" as="geometry" />
        </mxCell>
        <mxCell id="LC6CZuk3xvm4SW736iO--85" value="$$128$$" style="text;html=1;align=center;verticalAlign=middle;whiteSpace=wrap;rounded=0;" vertex="1" parent="1">
          <mxGeometry x="310" y="260" width="20" height="20" as="geometry" />
        </mxCell>
        <mxCell id="LC6CZuk3xvm4SW736iO--86" value="$$129$$" style="text;html=1;align=center;verticalAlign=middle;whiteSpace=wrap;rounded=0;" vertex="1" parent="1">
          <mxGeometry x="350" y="260" width="20" height="20" as="geometry" />
        </mxCell>
        <mxCell id="LC6CZuk3xvm4SW736iO--87" value="" style="endArrow=none;html=1;rounded=0;exitX=0.5;exitY=0;exitDx=0;exitDy=0;dashed=1;" edge="1" parent="1">
          <mxGeometry width="50" height="50" relative="1" as="geometry">
            <mxPoint x="399" y="260" as="sourcePoint" />
            <mxPoint x="479" y="260" as="targetPoint" />
          </mxGeometry>
        </mxCell>
        <mxCell id="LC6CZuk3xvm4SW736iO--88" value="" style="endArrow=none;html=1;rounded=0;" edge="1" parent="1">
          <mxGeometry width="50" height="50" relative="1" as="geometry">
            <mxPoint x="479" y="260" as="sourcePoint" />
            <mxPoint x="519" y="260" as="targetPoint" />
          </mxGeometry>
        </mxCell>
        <mxCell id="LC6CZuk3xvm4SW736iO--89" value="" style="endArrow=none;html=1;rounded=0;" edge="1" parent="1">
          <mxGeometry width="50" height="50" relative="1" as="geometry">
            <mxPoint x="479" y="260" as="sourcePoint" />
            <mxPoint x="479" y="250" as="targetPoint" />
          </mxGeometry>
        </mxCell>
        <mxCell id="LC6CZuk3xvm4SW736iO--90" value="" style="endArrow=none;html=1;rounded=0;" edge="1" parent="1">
          <mxGeometry width="50" height="50" relative="1" as="geometry">
            <mxPoint x="519" y="260" as="sourcePoint" />
            <mxPoint x="519" y="250" as="targetPoint" />
          </mxGeometry>
        </mxCell>
        <mxCell id="LC6CZuk3xvm4SW736iO--91" value="" style="endArrow=none;html=1;rounded=0;" edge="1" parent="1">
          <mxGeometry width="50" height="50" relative="1" as="geometry">
            <mxPoint x="519" y="260" as="sourcePoint" />
            <mxPoint x="559" y="260" as="targetPoint" />
          </mxGeometry>
        </mxCell>
        <mxCell id="LC6CZuk3xvm4SW736iO--92" value="" style="endArrow=none;html=1;rounded=0;" edge="1" parent="1">
          <mxGeometry width="50" height="50" relative="1" as="geometry">
            <mxPoint x="519" y="260" as="sourcePoint" />
            <mxPoint x="519" y="250" as="targetPoint" />
          </mxGeometry>
        </mxCell>
        <mxCell id="LC6CZuk3xvm4SW736iO--93" value="" style="endArrow=none;html=1;rounded=0;" edge="1" parent="1">
          <mxGeometry width="50" height="50" relative="1" as="geometry">
            <mxPoint x="559" y="260" as="sourcePoint" />
            <mxPoint x="559" y="250" as="targetPoint" />
          </mxGeometry>
        </mxCell>
        <mxCell id="LC6CZuk3xvm4SW736iO--94" value="" style="endArrow=none;html=1;rounded=0;" edge="1" parent="1">
          <mxGeometry width="50" height="50" relative="1" as="geometry">
            <mxPoint x="559" y="260" as="sourcePoint" />
            <mxPoint x="599" y="260" as="targetPoint" />
          </mxGeometry>
        </mxCell>
        <mxCell id="LC6CZuk3xvm4SW736iO--95" value="" style="endArrow=none;html=1;rounded=0;" edge="1" parent="1">
          <mxGeometry width="50" height="50" relative="1" as="geometry">
            <mxPoint x="559" y="260" as="sourcePoint" />
            <mxPoint x="559" y="250" as="targetPoint" />
          </mxGeometry>
        </mxCell>
        <mxCell id="LC6CZuk3xvm4SW736iO--96" value="" style="endArrow=none;html=1;rounded=0;" edge="1" parent="1">
          <mxGeometry width="50" height="50" relative="1" as="geometry">
            <mxPoint x="599" y="260" as="sourcePoint" />
            <mxPoint x="599" y="250" as="targetPoint" />
          </mxGeometry>
        </mxCell>
        <mxCell id="LC6CZuk3xvm4SW736iO--97" value="$$252$$" style="text;html=1;align=center;verticalAlign=middle;whiteSpace=wrap;rounded=0;" vertex="1" parent="1">
          <mxGeometry x="469" y="260" width="20" height="20" as="geometry" />
        </mxCell>
        <mxCell id="LC6CZuk3xvm4SW736iO--98" value="$$253$$" style="text;html=1;align=center;verticalAlign=middle;whiteSpace=wrap;rounded=0;" vertex="1" parent="1">
          <mxGeometry x="509" y="260" width="20" height="20" as="geometry" />
        </mxCell>
        <mxCell id="LC6CZuk3xvm4SW736iO--99" value="$$254$$" style="text;html=1;align=center;verticalAlign=middle;whiteSpace=wrap;rounded=0;" vertex="1" parent="1">
          <mxGeometry x="549" y="260" width="20" height="20" as="geometry" />
        </mxCell>
        <mxCell id="LC6CZuk3xvm4SW736iO--100" value="$$255$$" style="text;html=1;align=center;verticalAlign=middle;whiteSpace=wrap;rounded=0;" vertex="1" parent="1">
          <mxGeometry x="589" y="260" width="20" height="20" as="geometry" />
        </mxCell>
        <mxCell id="LC6CZuk3xvm4SW736iO--101" value="$$0$$" style="text;html=1;align=center;verticalAlign=middle;whiteSpace=wrap;rounded=0;fontColor=#FF3333;" vertex="1" parent="1">
          <mxGeometry x="30" y="230.56999999999994" width="20" height="20" as="geometry" />
        </mxCell>
        <mxCell id="LC6CZuk3xvm4SW736iO--102" value="$$1$$" style="text;html=1;align=center;verticalAlign=middle;whiteSpace=wrap;rounded=0;fontColor=#FF3333;" vertex="1" parent="1">
          <mxGeometry x="70" y="230.56999999999994" width="20" height="20" as="geometry" />
        </mxCell>
        <mxCell id="LC6CZuk3xvm4SW736iO--103" value="$$2$$" style="text;html=1;align=center;verticalAlign=middle;whiteSpace=wrap;rounded=0;fontColor=#FF3333;" vertex="1" parent="1">
          <mxGeometry x="110" y="230.56999999999994" width="20" height="20" as="geometry" />
        </mxCell>
        <mxCell id="LC6CZuk3xvm4SW736iO--104" value="$$126$$" style="text;html=1;align=center;verticalAlign=middle;whiteSpace=wrap;rounded=0;fontColor=#FF3333;" vertex="1" parent="1">
          <mxGeometry x="230" y="230.56999999999994" width="20" height="20" as="geometry" />
        </mxCell>
        <mxCell id="LC6CZuk3xvm4SW736iO--105" value="$$127$$" style="text;html=1;align=center;verticalAlign=middle;whiteSpace=wrap;rounded=0;fontColor=#FF3333;" vertex="1" parent="1">
          <mxGeometry x="270" y="230.56999999999994" width="20" height="20" as="geometry" />
        </mxCell>
        <mxCell id="LC6CZuk3xvm4SW736iO--106" value="$$-127$$" style="text;html=1;align=center;verticalAlign=middle;whiteSpace=wrap;rounded=0;fontColor=#FF3333;" vertex="1" parent="1">
          <mxGeometry x="310" y="230.56999999999994" width="20" height="20" as="geometry" />
        </mxCell>
        <mxCell id="LC6CZuk3xvm4SW736iO--107" value="$$-126$$" style="text;html=1;align=center;verticalAlign=middle;whiteSpace=wrap;rounded=0;fontColor=#FF3333;" vertex="1" parent="1">
          <mxGeometry x="350" y="230.56999999999994" width="20" height="20" as="geometry" />
        </mxCell>
        <mxCell id="LC6CZuk3xvm4SW736iO--108" value="$$-3$$" style="text;html=1;align=center;verticalAlign=middle;whiteSpace=wrap;rounded=0;fontColor=#FF3333;" vertex="1" parent="1">
          <mxGeometry x="469" y="230.56999999999994" width="20" height="20" as="geometry" />
        </mxCell>
        <mxCell id="LC6CZuk3xvm4SW736iO--109" value="$$-2$$" style="text;html=1;align=center;verticalAlign=middle;whiteSpace=wrap;rounded=0;fontColor=#FF3333;" vertex="1" parent="1">
          <mxGeometry x="509" y="230.56999999999994" width="20" height="20" as="geometry" />
        </mxCell>
        <mxCell id="LC6CZuk3xvm4SW736iO--110" value="$$-1$$" style="text;html=1;align=center;verticalAlign=middle;whiteSpace=wrap;rounded=0;fontColor=#FF3333;" vertex="1" parent="1">
          <mxGeometry x="549" y="230.56999999999994" width="20" height="20" as="geometry" />
        </mxCell>
        <mxCell id="LC6CZuk3xvm4SW736iO--111" value="$$-0$$" style="text;html=1;align=center;verticalAlign=middle;whiteSpace=wrap;rounded=0;fontColor=#FF3333;" vertex="1" parent="1">
          <mxGeometry x="589" y="230.56999999999994" width="20" height="20" as="geometry" />
        </mxCell>
        <mxCell id="LC6CZuk3xvm4SW736iO--112" value="" style="endArrow=none;html=1;rounded=0;" edge="1" parent="1">
          <mxGeometry width="50" height="50" relative="1" as="geometry">
            <mxPoint x="360.28999999999996" y="260.29" as="sourcePoint" />
            <mxPoint x="360.28999999999996" y="250.29000000000002" as="targetPoint" />
          </mxGeometry>
        </mxCell>
        <mxCell id="LC6CZuk3xvm4SW736iO--113" value="" style="endArrow=none;html=1;rounded=0;" edge="1" parent="1">
          <mxGeometry width="50" height="50" relative="1" as="geometry">
            <mxPoint x="359.99999999999994" y="260" as="sourcePoint" />
            <mxPoint x="399.99999999999994" y="260" as="targetPoint" />
          </mxGeometry>
        </mxCell>
        <mxCell id="LC6CZuk3xvm4SW736iO--114" value="" style="endArrow=none;html=1;rounded=0;" edge="1" parent="1">
          <mxGeometry width="50" height="50" relative="1" as="geometry">
            <mxPoint x="360.28999999999996" y="260.29" as="sourcePoint" />
            <mxPoint x="360.28999999999996" y="250.29000000000002" as="targetPoint" />
          </mxGeometry>
        </mxCell>
        <mxCell id="LC6CZuk3xvm4SW736iO--115" value="" style="endArrow=none;html=1;rounded=0;" edge="1" parent="1">
          <mxGeometry width="50" height="50" relative="1" as="geometry">
            <mxPoint x="400.28999999999996" y="260.29" as="sourcePoint" />
            <mxPoint x="400.28999999999996" y="250.29000000000002" as="targetPoint" />
          </mxGeometry>
        </mxCell>
        <mxCell id="LC6CZuk3xvm4SW736iO--116" value="" style="endArrow=none;html=1;rounded=0;" edge="1" parent="1">
          <mxGeometry width="50" height="50" relative="1" as="geometry">
            <mxPoint x="399.89" y="260" as="sourcePoint" />
            <mxPoint x="399.89" y="250" as="targetPoint" />
          </mxGeometry>
        </mxCell>
        <mxCell id="LC6CZuk3xvm4SW736iO--117" value="$$130$$" style="text;html=1;align=center;verticalAlign=middle;whiteSpace=wrap;rounded=0;" vertex="1" parent="1">
          <mxGeometry x="391" y="260" width="20" height="20" as="geometry" />
        </mxCell>
        <mxCell id="LC6CZuk3xvm4SW736iO--118" value="$$-125$$" style="text;html=1;align=center;verticalAlign=middle;whiteSpace=wrap;rounded=0;fontColor=#FF3333;" vertex="1" parent="1">
          <mxGeometry x="388" y="230.56999999999994" width="20" height="20" as="geometry" />
        </mxCell>
        <mxCell id="LC6CZuk3xvm4SW736iO--119" value="" style="endArrow=none;html=1;rounded=0;" edge="1" parent="1">
          <mxGeometry width="50" height="50" relative="1" as="geometry">
            <mxPoint x="120" y="260" as="sourcePoint" />
            <mxPoint x="120" y="250" as="targetPoint" />
          </mxGeometry>
        </mxCell>
        <mxCell id="LC6CZuk3xvm4SW736iO--120" value="" style="endArrow=none;html=1;rounded=0;" edge="1" parent="1">
          <mxGeometry width="50" height="50" relative="1" as="geometry">
            <mxPoint x="120" y="260" as="sourcePoint" />
            <mxPoint x="160" y="260" as="targetPoint" />
          </mxGeometry>
        </mxCell>
        <mxCell id="LC6CZuk3xvm4SW736iO--121" value="" style="endArrow=none;html=1;rounded=0;" edge="1" parent="1">
          <mxGeometry width="50" height="50" relative="1" as="geometry">
            <mxPoint x="120" y="260" as="sourcePoint" />
            <mxPoint x="120" y="250" as="targetPoint" />
          </mxGeometry>
        </mxCell>
        <mxCell id="LC6CZuk3xvm4SW736iO--122" value="" style="endArrow=none;html=1;rounded=0;" edge="1" parent="1">
          <mxGeometry width="50" height="50" relative="1" as="geometry">
            <mxPoint x="160" y="260" as="sourcePoint" />
            <mxPoint x="160" y="250" as="targetPoint" />
          </mxGeometry>
        </mxCell>
        <mxCell id="LC6CZuk3xvm4SW736iO--123" value="$$3$$" style="text;html=1;align=center;verticalAlign=middle;whiteSpace=wrap;rounded=0;" vertex="1" parent="1">
          <mxGeometry x="150" y="260" width="20" height="20" as="geometry" />
        </mxCell>
        <mxCell id="LC6CZuk3xvm4SW736iO--124" value="$$3$$" style="text;html=1;align=center;verticalAlign=middle;whiteSpace=wrap;rounded=0;fontColor=#FF3333;" vertex="1" parent="1">
          <mxGeometry x="150" y="230.56999999999994" width="20" height="20" as="geometry" />
        </mxCell>
        <mxCell id="LC6CZuk3xvm4SW736iO--125" value="&lt;font&gt;Signed Int8 反码&lt;/font&gt;" style="text;html=1;align=center;verticalAlign=middle;whiteSpace=wrap;rounded=0;fontColor=#FF3333;" vertex="1" parent="1">
          <mxGeometry x="40" y="200.57" width="100" height="30" as="geometry" />
        </mxCell>
        <mxCell id="LC6CZuk3xvm4SW736iO--126" value="&lt;font&gt;Unsigned Int8&lt;/font&gt;" style="text;html=1;align=center;verticalAlign=middle;whiteSpace=wrap;rounded=0;fontColor=default;" vertex="1" parent="1">
          <mxGeometry x="40" y="280" width="80" height="30" as="geometry" />
        </mxCell>
        <mxCell id="LC6CZuk3xvm4SW736iO--128" value="" style="shape=flexArrow;endArrow=classic;html=1;rounded=0;fillColor=#e1d5e7;strokeColor=#9673a6;" edge="1" parent="1">
          <mxGeometry width="50" height="50" relative="1" as="geometry">
            <mxPoint x="319.55" y="130" as="sourcePoint" />
            <mxPoint x="319.55" y="210" as="targetPoint" />
          </mxGeometry>
        </mxCell>
        <mxCell id="LC6CZuk3xvm4SW736iO--129" value="" style="shape=flexArrow;endArrow=classic;html=1;rounded=0;fillColor=#e1d5e7;strokeColor=#9673a6;" edge="1" parent="1">
          <mxGeometry width="50" height="50" relative="1" as="geometry">
            <mxPoint x="319.55" y="290" as="sourcePoint" />
            <mxPoint x="319.55" y="370" as="targetPoint" />
          </mxGeometry>
        </mxCell>
      </root>
    </mxGraphModel>
  </diagram>
  <diagram id="jJTK4LLrTznUz9ekGV_A" name="float32">
    <mxGraphModel dx="1304" dy="767" grid="1" gridSize="10" guides="1" tooltips="1" connect="1" arrows="1" fold="1" page="1" pageScale="1" pageWidth="827" pageHeight="1169" math="1" shadow="0">
      <root>
        <mxCell id="0" />
        <mxCell id="1" parent="0" />
        <mxCell id="ViBVSfZ76fhUMRGSi_uO-3" style="edgeStyle=orthogonalEdgeStyle;rounded=0;orthogonalLoop=1;jettySize=auto;html=1;exitX=0.5;exitY=1;exitDx=0;exitDy=0;entryX=0.5;entryY=0;entryDx=0;entryDy=0;fillColor=#d5e8d4;strokeColor=#82b366;" parent="1" source="ViBVSfZ76fhUMRGSi_uO-1" target="yII_82rKVi1Xpz98KUtF-1" edge="1">
          <mxGeometry relative="1" as="geometry">
            <Array as="points">
              <mxPoint x="325" y="280" />
              <mxPoint x="182" y="280" />
            </Array>
          </mxGeometry>
        </mxCell>
        <mxCell id="ViBVSfZ76fhUMRGSi_uO-5" style="edgeStyle=orthogonalEdgeStyle;rounded=0;orthogonalLoop=1;jettySize=auto;html=1;exitX=0.5;exitY=0;exitDx=0;exitDy=0;entryX=0.5;entryY=1;entryDx=0;entryDy=0;fillColor=#d5e8d4;strokeColor=#82b366;" parent="1" source="ViBVSfZ76fhUMRGSi_uO-1" target="ViBVSfZ76fhUMRGSi_uO-4" edge="1">
          <mxGeometry relative="1" as="geometry" />
        </mxCell>
        <mxCell id="ViBVSfZ76fhUMRGSi_uO-1" value="" style="rounded=0;whiteSpace=wrap;html=1;fillColor=#d5e8d4;strokeColor=#82b366;" parent="1" vertex="1">
          <mxGeometry x="310" y="221" width="29" height="39" as="geometry" />
        </mxCell>
        <mxCell id="yII_82rKVi1Xpz98KUtF-59" value="" style="rounded=0;whiteSpace=wrap;html=1;fillColor=#dae8fc;strokeColor=#6c8ebf;" parent="1" vertex="1">
          <mxGeometry x="545" y="210" width="27" height="30" as="geometry" />
        </mxCell>
        <mxCell id="yII_82rKVi1Xpz98KUtF-67" style="edgeStyle=orthogonalEdgeStyle;rounded=0;orthogonalLoop=1;jettySize=auto;html=1;entryX=0.5;entryY=1;entryDx=0;entryDy=0;fillColor=#e1d5e7;strokeColor=#9673a6;" parent="1" source="yII_82rKVi1Xpz98KUtF-47" target="yII_82rKVi1Xpz98KUtF-65" edge="1">
          <mxGeometry relative="1" as="geometry" />
        </mxCell>
        <mxCell id="yII_82rKVi1Xpz98KUtF-47" value="" style="rounded=0;whiteSpace=wrap;html=1;fillColor=#e1d5e7;strokeColor=#9673a6;" parent="1" vertex="1">
          <mxGeometry x="371" y="220" width="100" height="40" as="geometry" />
        </mxCell>
        <mxCell id="yII_82rKVi1Xpz98KUtF-1" value="0" style="rounded=0;whiteSpace=wrap;html=1;fillColor=#d5e8d4;strokeColor=#82b366;" parent="1" vertex="1">
          <mxGeometry x="172" y="400" width="20" height="40" as="geometry" />
        </mxCell>
        <mxCell id="yII_82rKVi1Xpz98KUtF-6" value="1" style="rounded=0;whiteSpace=wrap;html=1;fillColor=#dae8fc;strokeColor=#6c8ebf;" parent="1" vertex="1">
          <mxGeometry x="192" y="400" width="20" height="40" as="geometry" />
        </mxCell>
        <mxCell id="yII_82rKVi1Xpz98KUtF-7" value="0" style="rounded=0;whiteSpace=wrap;html=1;fillColor=#dae8fc;strokeColor=#6c8ebf;" parent="1" vertex="1">
          <mxGeometry x="212" y="400" width="20" height="40" as="geometry" />
        </mxCell>
        <mxCell id="yII_82rKVi1Xpz98KUtF-8" value="0" style="rounded=0;whiteSpace=wrap;html=1;fillColor=#dae8fc;strokeColor=#6c8ebf;" parent="1" vertex="1">
          <mxGeometry x="232" y="400" width="20" height="40" as="geometry" />
        </mxCell>
        <mxCell id="yII_82rKVi1Xpz98KUtF-9" value="0" style="rounded=0;whiteSpace=wrap;html=1;fillColor=#dae8fc;strokeColor=#6c8ebf;" parent="1" vertex="1">
          <mxGeometry x="252" y="400" width="20" height="40" as="geometry" />
        </mxCell>
        <mxCell id="yII_82rKVi1Xpz98KUtF-10" value="0" style="rounded=0;whiteSpace=wrap;html=1;fillColor=#dae8fc;strokeColor=#6c8ebf;" parent="1" vertex="1">
          <mxGeometry x="272" y="400" width="20" height="40" as="geometry" />
        </mxCell>
        <mxCell id="yII_82rKVi1Xpz98KUtF-11" value="0" style="rounded=0;whiteSpace=wrap;html=1;fillColor=#dae8fc;strokeColor=#6c8ebf;" parent="1" vertex="1">
          <mxGeometry x="292" y="400" width="20" height="40" as="geometry" />
        </mxCell>
        <mxCell id="yII_82rKVi1Xpz98KUtF-12" value="1" style="rounded=0;whiteSpace=wrap;html=1;fillColor=#dae8fc;strokeColor=#6c8ebf;" parent="1" vertex="1">
          <mxGeometry x="312" y="400" width="20" height="40" as="geometry" />
        </mxCell>
        <mxCell id="yII_82rKVi1Xpz98KUtF-13" value="1" style="rounded=0;whiteSpace=wrap;html=1;fillColor=#dae8fc;strokeColor=#6c8ebf;" parent="1" vertex="1">
          <mxGeometry x="332" y="400" width="20" height="40" as="geometry" />
        </mxCell>
        <mxCell id="yII_82rKVi1Xpz98KUtF-14" value="1" style="rounded=0;whiteSpace=wrap;html=1;fillColor=#e1d5e7;strokeColor=#9673a6;" parent="1" vertex="1">
          <mxGeometry x="352" y="400" width="20" height="40" as="geometry" />
        </mxCell>
        <mxCell id="yII_82rKVi1Xpz98KUtF-15" value="0" style="rounded=0;whiteSpace=wrap;html=1;fillColor=#e1d5e7;strokeColor=#9673a6;" parent="1" vertex="1">
          <mxGeometry x="372" y="400" width="20" height="40" as="geometry" />
        </mxCell>
        <mxCell id="yII_82rKVi1Xpz98KUtF-16" value="0" style="rounded=0;whiteSpace=wrap;html=1;fillColor=#e1d5e7;strokeColor=#9673a6;" parent="1" vertex="1">
          <mxGeometry x="392" y="400" width="20" height="40" as="geometry" />
        </mxCell>
        <mxCell id="yII_82rKVi1Xpz98KUtF-17" value="1" style="rounded=0;whiteSpace=wrap;html=1;fillColor=#e1d5e7;strokeColor=#9673a6;" parent="1" vertex="1">
          <mxGeometry x="412" y="400" width="20" height="40" as="geometry" />
        </mxCell>
        <mxCell id="yII_82rKVi1Xpz98KUtF-18" value="0" style="rounded=0;whiteSpace=wrap;html=1;fillColor=#e1d5e7;strokeColor=#9673a6;" parent="1" vertex="1">
          <mxGeometry x="432" y="400" width="20" height="40" as="geometry" />
        </mxCell>
        <mxCell id="yII_82rKVi1Xpz98KUtF-19" value="0" style="rounded=0;whiteSpace=wrap;html=1;fillColor=#e1d5e7;strokeColor=#9673a6;" parent="1" vertex="1">
          <mxGeometry x="452" y="400" width="20" height="40" as="geometry" />
        </mxCell>
        <mxCell id="yII_82rKVi1Xpz98KUtF-20" value="1" style="rounded=0;whiteSpace=wrap;html=1;fillColor=#e1d5e7;strokeColor=#9673a6;" parent="1" vertex="1">
          <mxGeometry x="472" y="400" width="20" height="40" as="geometry" />
        </mxCell>
        <mxCell id="yII_82rKVi1Xpz98KUtF-21" value="0" style="rounded=0;whiteSpace=wrap;html=1;fillColor=#e1d5e7;strokeColor=#9673a6;" parent="1" vertex="1">
          <mxGeometry x="492" y="400" width="20" height="40" as="geometry" />
        </mxCell>
        <mxCell id="yII_82rKVi1Xpz98KUtF-22" value="0" style="rounded=0;whiteSpace=wrap;html=1;fillColor=#e1d5e7;strokeColor=#9673a6;" parent="1" vertex="1">
          <mxGeometry x="512" y="400" width="20" height="40" as="geometry" />
        </mxCell>
        <mxCell id="yII_82rKVi1Xpz98KUtF-23" value="0" style="rounded=0;whiteSpace=wrap;html=1;fillColor=#e1d5e7;strokeColor=#9673a6;" parent="1" vertex="1">
          <mxGeometry x="532" y="400" width="20" height="40" as="geometry" />
        </mxCell>
        <mxCell id="yII_82rKVi1Xpz98KUtF-24" value="0" style="rounded=0;whiteSpace=wrap;html=1;fillColor=#e1d5e7;strokeColor=#9673a6;" parent="1" vertex="1">
          <mxGeometry x="552" y="400" width="20" height="40" as="geometry" />
        </mxCell>
        <mxCell id="yII_82rKVi1Xpz98KUtF-25" value="0" style="rounded=0;whiteSpace=wrap;html=1;fillColor=#e1d5e7;strokeColor=#9673a6;" parent="1" vertex="1">
          <mxGeometry x="572" y="400" width="20" height="40" as="geometry" />
        </mxCell>
        <mxCell id="yII_82rKVi1Xpz98KUtF-26" value="0" style="rounded=0;whiteSpace=wrap;html=1;fillColor=#e1d5e7;strokeColor=#9673a6;" parent="1" vertex="1">
          <mxGeometry x="592" y="400" width="20" height="40" as="geometry" />
        </mxCell>
        <mxCell id="yII_82rKVi1Xpz98KUtF-27" value="0" style="rounded=0;whiteSpace=wrap;html=1;fillColor=#e1d5e7;strokeColor=#9673a6;" parent="1" vertex="1">
          <mxGeometry x="612" y="400" width="20" height="40" as="geometry" />
        </mxCell>
        <mxCell id="yII_82rKVi1Xpz98KUtF-28" value="0" style="rounded=0;whiteSpace=wrap;html=1;fillColor=#e1d5e7;strokeColor=#9673a6;" parent="1" vertex="1">
          <mxGeometry x="632" y="400" width="20" height="40" as="geometry" />
        </mxCell>
        <mxCell id="yII_82rKVi1Xpz98KUtF-29" value="0" style="rounded=0;whiteSpace=wrap;html=1;fillColor=#e1d5e7;strokeColor=#9673a6;" parent="1" vertex="1">
          <mxGeometry x="652" y="400" width="20" height="40" as="geometry" />
        </mxCell>
        <mxCell id="yII_82rKVi1Xpz98KUtF-30" value="0" style="rounded=0;whiteSpace=wrap;html=1;fillColor=#e1d5e7;strokeColor=#9673a6;" parent="1" vertex="1">
          <mxGeometry x="672" y="400" width="20" height="40" as="geometry" />
        </mxCell>
        <mxCell id="yII_82rKVi1Xpz98KUtF-31" value="0" style="rounded=0;whiteSpace=wrap;html=1;fillColor=#e1d5e7;strokeColor=#9673a6;" parent="1" vertex="1">
          <mxGeometry x="692" y="400" width="20" height="40" as="geometry" />
        </mxCell>
        <mxCell id="yII_82rKVi1Xpz98KUtF-32" value="0" style="rounded=0;whiteSpace=wrap;html=1;fillColor=#e1d5e7;strokeColor=#9673a6;" parent="1" vertex="1">
          <mxGeometry x="712" y="400" width="20" height="40" as="geometry" />
        </mxCell>
        <mxCell id="yII_82rKVi1Xpz98KUtF-33" value="0" style="rounded=0;whiteSpace=wrap;html=1;fillColor=#e1d5e7;strokeColor=#9673a6;" parent="1" vertex="1">
          <mxGeometry x="732" y="400" width="20" height="40" as="geometry" />
        </mxCell>
        <mxCell id="yII_82rKVi1Xpz98KUtF-34" value="0" style="rounded=0;whiteSpace=wrap;html=1;fillColor=#e1d5e7;strokeColor=#9673a6;" parent="1" vertex="1">
          <mxGeometry x="752" y="400" width="20" height="40" as="geometry" />
        </mxCell>
        <mxCell id="yII_82rKVi1Xpz98KUtF-35" value="0" style="rounded=0;whiteSpace=wrap;html=1;fillColor=#e1d5e7;strokeColor=#9673a6;" parent="1" vertex="1">
          <mxGeometry x="772" y="400" width="20" height="40" as="geometry" />
        </mxCell>
        <mxCell id="yII_82rKVi1Xpz98KUtF-36" value="0" style="rounded=0;whiteSpace=wrap;html=1;fillColor=#e1d5e7;strokeColor=#9673a6;" parent="1" vertex="1">
          <mxGeometry x="792" y="400" width="20" height="40" as="geometry" />
        </mxCell>
        <mxCell id="yII_82rKVi1Xpz98KUtF-38" value="" style="shape=curlyBracket;whiteSpace=wrap;html=1;rounded=1;flipH=1;labelPosition=right;verticalLabelPosition=middle;align=left;verticalAlign=middle;rotation=90;" parent="1" vertex="1">
          <mxGeometry x="249.5" y="383.5" width="45" height="160" as="geometry" />
        </mxCell>
        <mxCell id="yII_82rKVi1Xpz98KUtF-39" value="" style="shape=curlyBracket;whiteSpace=wrap;html=1;rounded=1;flipH=1;labelPosition=right;verticalLabelPosition=middle;align=left;verticalAlign=middle;rotation=90;" parent="1" vertex="1">
          <mxGeometry x="560.31" y="232.7" width="43.55" height="460.16" as="geometry" />
        </mxCell>
        <mxCell id="yII_82rKVi1Xpz98KUtF-40" value="&lt;font style=&quot;font-size: 11px;&quot;&gt;阶码&lt;/font&gt;&lt;div style=&quot;font-size: 11px;&quot;&gt;&lt;font style=&quot;font-size: 11px;&quot;&gt;第 30-23 位&lt;/font&gt;&lt;/div&gt;" style="text;html=1;align=center;verticalAlign=middle;whiteSpace=wrap;rounded=0;fontSize=11;" parent="1" vertex="1">
          <mxGeometry x="212" y="480" width="120" height="40" as="geometry" />
        </mxCell>
        <mxCell id="yII_82rKVi1Xpz98KUtF-41" value="&lt;font style=&quot;font-size: 11px;&quot;&gt;尾数&lt;/font&gt;&lt;div style=&quot;font-size: 11px;&quot;&gt;&lt;font style=&quot;font-size: 11px;&quot;&gt;第 22-0 位&lt;/font&gt;&lt;/div&gt;" style="text;html=1;align=center;verticalAlign=middle;whiteSpace=wrap;rounded=0;fontSize=11;" parent="1" vertex="1">
          <mxGeometry x="520.5" y="480" width="120" height="40" as="geometry" />
        </mxCell>
        <mxCell id="yII_82rKVi1Xpz98KUtF-42" value="" style="endArrow=classic;html=1;rounded=0;" parent="1" edge="1">
          <mxGeometry width="50" height="50" relative="1" as="geometry">
            <mxPoint x="181.5" y="440" as="sourcePoint" />
            <mxPoint x="182" y="480" as="targetPoint" />
          </mxGeometry>
        </mxCell>
        <mxCell id="yII_82rKVi1Xpz98KUtF-43" value="&lt;font style=&quot;font-size: 11px;&quot;&gt;符号位&lt;br style=&quot;font-size: 11px;&quot;&gt;&lt;/font&gt;&lt;div style=&quot;font-size: 11px;&quot;&gt;&lt;font style=&quot;font-size: 11px;&quot;&gt;第 31 位&lt;/font&gt;&lt;/div&gt;" style="text;html=1;align=center;verticalAlign=middle;whiteSpace=wrap;rounded=0;fontSize=11;" parent="1" vertex="1">
          <mxGeometry x="122" y="480" width="120" height="40" as="geometry" />
        </mxCell>
        <mxCell id="yII_82rKVi1Xpz98KUtF-44" value="$$25.125 = 11001.001_{(2)} = + \enspace 1.1001 001_{(2)} \times 2^4$$" style="text;html=1;align=center;verticalAlign=middle;whiteSpace=wrap;rounded=0;fontSize=24;" parent="1" vertex="1">
          <mxGeometry x="5" y="199" width="560" height="80" as="geometry" />
        </mxCell>
        <mxCell id="yII_82rKVi1Xpz98KUtF-45" value="" style="shape=curlyBracket;whiteSpace=wrap;html=1;rounded=1;labelPosition=left;verticalLabelPosition=middle;align=right;verticalAlign=middle;rotation=90;fillColor=#e1d5e7;strokeColor=#9673a6;" parent="1" vertex="1">
          <mxGeometry x="412" y="320" width="20" height="140" as="geometry" />
        </mxCell>
        <mxCell id="yII_82rKVi1Xpz98KUtF-48" value="" style="shape=curlyBracket;whiteSpace=wrap;html=1;rounded=1;labelPosition=left;verticalLabelPosition=middle;align=right;verticalAlign=middle;rotation=90;" parent="1" vertex="1">
          <mxGeometry x="642" y="230" width="20" height="320" as="geometry" />
        </mxCell>
        <mxCell id="yII_82rKVi1Xpz98KUtF-49" value="位数不够时补零" style="text;html=1;align=center;verticalAlign=middle;whiteSpace=wrap;rounded=0;fontSize=11;" parent="1" vertex="1">
          <mxGeometry x="602" y="353.5" width="100" height="30" as="geometry" />
        </mxCell>
        <mxCell id="yII_82rKVi1Xpz98KUtF-50" value="" style="endArrow=classic;html=1;rounded=0;entryX=0.1;entryY=0.5;entryDx=0;entryDy=0;entryPerimeter=0;exitX=0.5;exitY=1;exitDx=0;exitDy=0;fillColor=#e1d5e7;strokeColor=#9673a6;" parent="1" source="yII_82rKVi1Xpz98KUtF-47" target="yII_82rKVi1Xpz98KUtF-45" edge="1">
          <mxGeometry width="50" height="50" relative="1" as="geometry">
            <mxPoint x="622" y="300" as="sourcePoint" />
            <mxPoint x="472" y="260" as="targetPoint" />
          </mxGeometry>
        </mxCell>
        <mxCell id="yII_82rKVi1Xpz98KUtF-58" style="edgeStyle=orthogonalEdgeStyle;rounded=0;orthogonalLoop=1;jettySize=auto;html=1;exitX=0;exitY=0.5;exitDx=0;exitDy=0;entryX=1;entryY=0.5;entryDx=0;entryDy=0;fillColor=#dae8fc;strokeColor=#6c8ebf;" parent="1" source="yII_82rKVi1Xpz98KUtF-53" target="yII_82rKVi1Xpz98KUtF-54" edge="1">
          <mxGeometry relative="1" as="geometry" />
        </mxCell>
        <mxCell id="yII_82rKVi1Xpz98KUtF-53" value="移码 4 + 127 = 131" style="rounded=0;whiteSpace=wrap;html=1;fontSize=11;fillColor=#dae8fc;strokeColor=#6c8ebf;" parent="1" vertex="1">
          <mxGeometry x="498" y="299" width="121" height="41" as="geometry" />
        </mxCell>
        <mxCell id="yII_82rKVi1Xpz98KUtF-54" value="&lt;font style=&quot;font-size: 11px;&quot;&gt;移码二进制 1000 0011&lt;/font&gt;" style="rounded=0;whiteSpace=wrap;html=1;fillColor=#dae8fc;strokeColor=#6c8ebf;" parent="1" vertex="1">
          <mxGeometry x="212" y="299" width="120" height="41" as="geometry" />
        </mxCell>
        <mxCell id="yII_82rKVi1Xpz98KUtF-55" value="" style="shape=curlyBracket;whiteSpace=wrap;html=1;rounded=1;labelPosition=left;verticalLabelPosition=middle;align=right;verticalAlign=middle;rotation=90;fillColor=#dae8fc;strokeColor=#6c8ebf;" parent="1" vertex="1">
          <mxGeometry x="262" y="310" width="20" height="160" as="geometry" />
        </mxCell>
        <mxCell id="yII_82rKVi1Xpz98KUtF-56" style="edgeStyle=orthogonalEdgeStyle;rounded=0;orthogonalLoop=1;jettySize=auto;html=1;exitX=0.5;exitY=1;exitDx=0;exitDy=0;entryX=0.1;entryY=0.5;entryDx=0;entryDy=0;entryPerimeter=0;fillColor=#dae8fc;strokeColor=#6c8ebf;" parent="1" source="yII_82rKVi1Xpz98KUtF-54" target="yII_82rKVi1Xpz98KUtF-55" edge="1">
          <mxGeometry relative="1" as="geometry" />
        </mxCell>
        <mxCell id="yII_82rKVi1Xpz98KUtF-60" style="edgeStyle=orthogonalEdgeStyle;rounded=0;orthogonalLoop=1;jettySize=auto;html=1;exitX=0.5;exitY=1;exitDx=0;exitDy=0;fillColor=#dae8fc;strokeColor=#6c8ebf;" parent="1" source="yII_82rKVi1Xpz98KUtF-59" target="yII_82rKVi1Xpz98KUtF-53" edge="1">
          <mxGeometry relative="1" as="geometry" />
        </mxCell>
        <mxCell id="yII_82rKVi1Xpz98KUtF-63" value="" style="endArrow=classic;html=1;rounded=0;exitX=0.5;exitY=0;exitDx=0;exitDy=0;fillColor=#dae8fc;strokeColor=#6c8ebf;" parent="1" source="yII_82rKVi1Xpz98KUtF-59" edge="1">
          <mxGeometry width="50" height="50" relative="1" as="geometry">
            <mxPoint x="640" y="190" as="sourcePoint" />
            <mxPoint x="559" y="160" as="targetPoint" />
          </mxGeometry>
        </mxCell>
        <mxCell id="yII_82rKVi1Xpz98KUtF-64" value="指数 (exponent)" style="text;html=1;align=center;verticalAlign=middle;whiteSpace=wrap;rounded=0;fontSize=11;" parent="1" vertex="1">
          <mxGeometry x="509.5" y="140" width="98" height="20" as="geometry" />
        </mxCell>
        <mxCell id="yII_82rKVi1Xpz98KUtF-65" value="尾数 (mantissa)" style="text;html=1;align=center;verticalAlign=middle;whiteSpace=wrap;rounded=0;fontSize=11;" parent="1" vertex="1">
          <mxGeometry x="371" y="140" width="100" height="20" as="geometry" />
        </mxCell>
        <mxCell id="ViBVSfZ76fhUMRGSi_uO-4" value="&lt;font style=&quot;font-size: 11px;&quot;&gt;符号 (sign)&lt;/font&gt;" style="text;html=1;align=center;verticalAlign=middle;whiteSpace=wrap;rounded=0;" parent="1" vertex="1">
          <mxGeometry x="294.5" y="140" width="60" height="20" as="geometry" />
        </mxCell>
      </root>
    </mxGraphModel>
  </diagram>
</mxfile>
